<svg width="110" height="110" viewBox="0 0 110 110" fill="none" xmlns="http://www.w3.org/2000/svg">
<path opacity="0.2" d="M27.4024 95.3702L23.9511 100.408C19.6873 97.486 15.8542 93.9842 12.5586 89.9939L17.2714 86.1074C20.2004 89.6581 23.609 92.7752 27.4024 95.3702Z" fill="#D8BC75"/>
<path opacity="0.2" d="M88.8226 98.3777C79.0825 105.983 67.3876 110 54.9995 110C45.6595 110 36.4355 107.619 28.3203 103.11L31.286 97.7732C38.4972 101.779 46.6979 103.894 54.9995 103.894C66.0101 103.894 76.4069 100.322 85.0628 93.5661L88.8226 98.3777Z" fill="#D8BC75"/>
<path opacity="0.2" d="M88.8226 11.623L85.0628 16.4346C76.4069 9.67825 66.0101 6.10623 54.9995 6.10624C46.6949 6.10624 38.4972 8.22197 31.286 12.2275L28.3203 6.89086C36.4355 2.38156 45.6595 0.000219481 54.9995 0.0002175C67.3876 0.000214872 79.0825 4.01797 88.8226 11.623Z" fill="#D8BC75"/>
<path opacity="0.2" d="M110 55.0248C110 67.2918 106.047 78.8963 98.5673 88.5835L93.7324 84.8527C100.379 76.2432 103.894 65.9271 103.894 55.0218L110 55.0218L110 55.0248Z" fill="#D8BC75"/>
<path opacity="0.2" d="M102.588 27.4439L97.3076 30.5122C96.0065 28.2743 94.516 26.125 92.8789 24.1192L97.6069 20.2541C99.4487 22.5103 101.125 24.9282 102.588 27.4439Z" fill="#D8BC75"/>
<path opacity="0.2" d="M24.8404 16.5568C16.0105 23.4841 9.78894 33.2903 7.32108 44.1621L1.36523 42.8127C4.14158 30.5762 11.142 19.5457 21.0715 11.7544L24.8404 16.5568Z" fill="#D8BC75"/>
<path opacity="0.2" d="M6.60641 48.0182C6.27655 50.3233 6.10856 52.6802 6.10856 55.0249L0 55.0249C-1.15168e-07 52.3902 0.189365 49.7432 0.558933 47.1542L6.60641 48.0182Z" fill="#D8BC75"/>
<path d="M31.9141 25V37.5351H77.3819V25H31.9141ZM63.6811 33.2324H60.2241V29.7754H63.6811V33.2324ZM70.1656 33.2324H66.7086V29.7754H70.1656V33.2324Z" fill="#D8BC75"/>
<path d="M31.9141 41.0508V42.2201V52.4088V53.1056H77.3818V52.4088V42.2201V41.0508H31.9141ZM63.6811 49.043H60.2241V45.5859H63.6811V49.043ZM70.1656 49.043H66.7086V45.5859H70.1656V49.043Z" fill="#D8BC75"/>
<path d="M60.743 77.2362C60.1601 75.3358 58.6582 73.8339 56.7578 73.2512V69.6288H75.6245H77.3823V56.6211H31.9145V69.6288H53.2422V73.2512C51.3418 73.8341 49.8399 75.3358 49.257 77.2362H25V80.7519H49.257C50.0105 83.2085 52.2998 85 55 85C57.7002 85 59.9895 83.2085 60.743 80.7519H85V77.2362H60.743ZM66.709 61.289H70.1661V64.7461H66.709V61.289ZM60.2246 61.289H63.6816V64.7461H60.2246V61.289ZM55 81.4844C53.6268 81.4844 52.5096 80.3673 52.5096 78.9941C52.5096 77.6209 53.6268 76.5038 55 76.5038C56.3732 76.5038 57.4904 77.621 57.4904 78.9941C57.4904 80.3673 56.3732 81.4844 55 81.4844Z" fill="#D8BC75"/>
</svg>
