<svg width="110" height="110" viewBox="0 0 110 110" fill="none" xmlns="http://www.w3.org/2000/svg">
<g opacity="0.2">
<path d="M14.6302 27.4034L9.59278 23.952C12.5145 19.6883 16.0163 15.8551 20.0066 12.5596L23.8931 17.2723C20.3424 20.2014 17.2253 23.61 14.6302 27.4034Z" fill="#D8BC75"/>
<path d="M11.6228 88.8216C4.01777 79.0815 6.58033e-06 67.3866 4.49372e-06 54.9985C2.92053e-06 45.6585 2.38135 36.4346 6.89064 28.3193L12.2273 31.285C8.22176 38.4962 6.10602 46.6969 6.10602 54.9985C6.10603 66.0092 9.67805 76.4059 16.4344 85.0618L11.6228 88.8216Z" fill="#D8BC75"/>
<path d="M98.377 88.8216L93.5654 85.0618C100.322 76.4059 103.894 66.0092 103.894 54.9985C103.894 46.6939 101.778 38.4962 97.7725 31.285L103.109 28.3193C107.618 36.4346 110 45.6585 110 54.9985C110 67.3866 105.982 79.0815 98.377 88.8216Z" fill="#D8BC75"/>
<path d="M54.9757 110C42.7087 110 31.1042 106.048 21.417 98.5678L25.1478 93.7329C33.7573 100.379 44.0734 103.894 54.9787 103.894L54.9787 110H54.9757Z" fill="#D8BC75"/>
<path d="M82.5566 102.587L79.4883 97.3066C81.7261 96.0055 83.8755 94.515 85.8813 92.8779L89.7464 97.606C87.4902 99.4477 85.0722 101.124 82.5566 102.587Z" fill="#D8BC75"/>
<path d="M93.4437 24.8404C86.5164 16.0105 76.7101 9.78894 65.8384 7.32108L67.1878 1.36523C79.4243 4.14158 90.4548 11.142 98.2461 21.0715L93.4437 24.8404Z" fill="#D8BC75"/>
<path d="M61.9822 6.60641C59.6772 6.27655 57.3203 6.10856 54.9756 6.10856L54.9756 0C57.6103 0 60.2573 0.189365 62.8462 0.558933L61.9822 6.60641Z" fill="#D8BC75"/>
</g>
<path fill-rule="evenodd" clip-rule="evenodd" d="M64.058 84.999C68.444 84.999 72 81.3408 72 76.8287V33.1694C72 28.6573 68.4451 24.999 64.058 24.999H45.942C41.556 24.999 38 28.6573 38 33.1694V76.8287C38 81.3408 41.556 84.999 45.942 84.999H64.058ZM59.3488 29.0671C59.7675 29.0671 60.1076 28.7183 60.1076 28.2865C60.1076 27.8546 59.7675 27.5059 59.3488 27.5059H50.649C50.2303 27.5059 49.8902 27.8557 49.8902 28.2865C49.8902 28.7172 50.2303 29.0671 50.649 29.0671H59.3488ZM41.6096 32.4026H68.3892V75.5513H41.6096V32.4026Z" fill="#D8BC75"/>
</svg>
