<svg width="110" height="110" viewBox="0 0 110 110" fill="none" xmlns="http://www.w3.org/2000/svg">
<path opacity="0.2" d="M27.4034 95.3695L23.952 100.407C19.6883 97.4853 15.8551 93.9834 12.5596 89.9932L17.2723 86.1067C20.2014 89.6573 23.61 92.7745 27.4034 95.3695Z" fill="#D8BC75"/>
<path opacity="0.2" d="M88.8216 98.3769C79.0815 105.982 67.3867 110 54.9985 110C45.6585 110 36.4346 107.618 28.3193 103.109L31.285 97.7724C38.4962 101.778 46.6969 103.894 54.9985 103.894C66.0092 103.894 76.4059 100.322 85.0618 93.5654L88.8216 98.3769Z" fill="#D8BC75"/>
<path opacity="0.2" d="M88.8216 11.6223L85.0618 16.4338C76.4059 9.67752 66.0092 6.1055 54.9985 6.1055C46.6939 6.10551 38.4962 8.22124 31.285 12.2268L28.3193 6.89013C36.4346 2.38083 45.6585 -0.000512941 54.9985 -0.000514922C67.3867 -0.00051755 79.0815 4.01723 88.8216 11.6223Z" fill="#D8BC75"/>
<path opacity="0.2" d="M110 55.0241C110 67.2911 106.048 78.8956 98.5678 88.5828L93.7329 84.852C100.379 76.2425 103.894 65.9264 103.894 55.021L110 55.021L110 55.0241Z" fill="#D8BC75"/>
<path opacity="0.2" d="M102.587 27.4432L97.3066 30.5115C96.0055 28.2736 94.515 26.1243 92.8779 24.1185L97.606 20.2534C99.4477 22.5095 101.124 24.9275 102.587 27.4432Z" fill="#D8BC75"/>
<path opacity="0.2" d="M24.8404 16.5561C16.0105 23.4833 9.78894 33.2896 7.32108 44.1614L1.36523 42.8119C4.14158 30.5755 11.142 19.545 21.0715 11.7537L24.8404 16.5561Z" fill="#D8BC75"/>
<path opacity="0.2" d="M6.60641 48.0175C6.27655 50.3225 6.10856 52.6795 6.10856 55.0242L0 55.0242C-1.15168e-07 52.3894 0.189365 49.7425 0.558933 47.1535L6.60641 48.0175Z" fill="#D8BC75"/>
<path d="M80.1853 40.4439C80.1136 38.8655 80.1136 37.3587 80.1136 35.852C80.1136 34.6323 79.1808 33.6996 77.9611 33.6996C68.9925 33.6996 62.1763 31.1166 56.5082 25.5919C55.6472 24.8027 54.3557 24.8027 53.4947 25.5919C47.8266 31.1166 41.0104 33.6996 32.0418 33.6996C30.8221 33.6996 29.8893 34.6323 29.8893 35.852C29.8893 37.3587 29.8893 38.8655 29.8176 40.4439C29.5306 55.5112 29.1001 76.1749 54.284 84.8565L55.0015 85L55.7189 84.8565C80.8311 76.1749 80.4723 55.583 80.1853 40.4439ZM53.2795 61.3229C52.849 61.6816 52.3467 61.8969 51.7728 61.8969H51.701C51.127 61.8969 50.553 61.6099 50.1943 61.1794L43.5216 53.7892L46.7503 50.9193L51.988 56.7309L63.6113 45.6816L66.553 48.8386L53.2795 61.3229Z" fill="#D8BC75"/>
</svg>
