<svg width="110" height="110" viewBox="0 0 110 110" fill="none" xmlns="http://www.w3.org/2000/svg">
<path opacity="0.2" d="M27.4029 95.3695L23.9516 100.407C19.6878 97.4853 15.8547 93.9834 12.5591 89.9932L17.2718 86.1067C20.2009 89.6573 23.6095 92.7745 27.4029 95.3695Z" fill="#D8BC75"/>
<path opacity="0.2" d="M88.8216 98.3769C79.0815 105.982 67.3867 110 54.9985 110C45.6585 110 36.4346 107.618 28.3193 103.109L31.285 97.7724C38.4962 101.778 46.6969 103.894 54.9985 103.894C66.0092 103.894 76.4059 100.322 85.0618 93.5654L88.8216 98.3769Z" fill="#D8BC75"/>
<path opacity="0.2" d="M88.8216 11.6223L85.0618 16.4338C76.4059 9.67752 66.0092 6.1055 54.9985 6.1055C46.6939 6.10551 38.4962 8.22124 31.285 12.2268L28.3193 6.89013C36.4346 2.38083 45.6585 -0.000512941 54.9985 -0.000514922C67.3867 -0.00051755 79.0815 4.01723 88.8216 11.6223Z" fill="#D8BC75"/>
<path opacity="0.2" d="M110 55.0241C110 67.2911 106.048 78.8956 98.5678 88.5828L93.7329 84.852C100.379 76.2425 103.894 65.9264 103.894 55.021L110 55.021L110 55.0241Z" fill="#D8BC75"/>
<path opacity="0.2" d="M102.587 27.4432L97.3066 30.5115C96.0055 28.2736 94.515 26.1243 92.8779 24.1185L97.606 20.2534C99.4477 22.5095 101.124 24.9275 102.587 27.4432Z" fill="#D8BC75"/>
<path opacity="0.2" d="M24.8404 16.5561C16.0105 23.4833 9.78894 33.2896 7.32108 44.1614L1.36523 42.8119C4.14158 30.5755 11.142 19.545 21.0715 11.7537L24.8404 16.5561Z" fill="#D8BC75"/>
<path opacity="0.2" d="M6.60641 48.0175C6.27655 50.3225 6.10856 52.6795 6.10856 55.0242L0 55.0242C-1.15168e-07 52.3894 0.189365 49.7425 0.558933 47.1535L6.60641 48.0175Z" fill="#D8BC75"/>
<path d="M33.9062 53.125C35.3244 53.125 36.608 52.556 37.5565 51.6423L42.7599 54.2438C42.7338 54.4557 42.6953 54.664 42.6953 54.8828C42.6953 57.7905 45.061 60.1562 47.9688 60.1562C50.8765 60.1562 53.2422 57.7905 53.2422 54.8828C53.2422 54.0712 53.0426 53.3113 52.7135 52.6237L59.7722 45.565C60.4597 45.8942 61.2196 46.0938 62.0312 46.0938C64.939 46.0938 67.3047 43.728 67.3047 40.8203C67.3047 40.2728 67.1971 39.7551 67.0415 39.2584L73.1746 34.6597C74.0114 35.2187 75.0143 35.5469 76.0938 35.5469C79.0015 35.5469 81.3672 33.1812 81.3672 30.2734C81.3672 27.3657 79.0015 25 76.0938 25C73.186 25 70.8203 27.3657 70.8203 30.2734C70.8203 30.8209 70.9279 31.3387 71.0835 31.8353L64.9504 36.434C64.1136 35.8751 63.1107 35.5469 62.0312 35.5469C59.1235 35.5469 56.7578 37.9126 56.7578 40.8203C56.7578 41.6319 56.9574 42.3918 57.2865 43.0794L50.2278 50.1381C49.5403 49.809 48.7804 49.6094 47.9688 49.6094C46.5506 49.6094 45.267 50.1784 44.3185 51.0921L39.1151 48.4906C39.1412 48.2787 39.1797 48.0704 39.1797 47.8516C39.1797 44.9438 36.814 42.5781 33.9062 42.5781C30.9985 42.5781 28.6328 44.9438 28.6328 47.8516C28.6328 50.7593 30.9985 53.125 33.9062 53.125Z" fill="#D8BC75"/>
<path d="M83.2422 81.4844H81.3672V44.3359C81.3672 43.3646 80.5807 42.5781 79.6094 42.5781H72.5781C71.6068 42.5781 70.8203 43.3646 70.8203 44.3359V81.4844H67.3047V54.8828C67.3047 53.9114 66.5182 53.125 65.5469 53.125H58.5156C57.5443 53.125 56.7578 53.9114 56.7578 54.8828V81.4844H53.2422V68.9453C53.2422 67.9739 52.4557 67.1875 51.4844 67.1875H44.4531C43.4818 67.1875 42.6953 67.9739 42.6953 68.9453V81.4844H39.1797V61.9141C39.1797 60.9427 38.3932 60.1562 37.4219 60.1562H30.3906C29.4193 60.1562 28.6328 60.9427 28.6328 61.9141V81.4844H26.7578C25.7864 81.4844 25 82.2708 25 83.2422C25 84.2136 25.7864 85 26.7578 85H83.2422C84.2136 85 85 84.2136 85 83.2422C85 82.2708 84.2136 81.4844 83.2422 81.4844Z" fill="#D8BC75"/>
</svg>
