<svg width="110" height="110" viewBox="0 0 110 110" fill="none" xmlns="http://www.w3.org/2000/svg">
<path opacity="0.2" d="M27.4029 95.3695L23.9516 100.407C19.6878 97.4853 15.8547 93.9834 12.5591 89.9932L17.2718 86.1067C20.2009 89.6573 23.6095 92.7745 27.4029 95.3695Z" fill="#D8BC75"/>
<path opacity="0.2" d="M88.8216 98.3769C79.0815 105.982 67.3867 110 54.9985 110C45.6585 110 36.4346 107.618 28.3193 103.109L31.285 97.7724C38.4962 101.778 46.6969 103.894 54.9985 103.894C66.0092 103.894 76.4059 100.322 85.0618 93.5654L88.8216 98.3769Z" fill="#D8BC75"/>
<path opacity="0.2" d="M88.8216 11.6223L85.0618 16.4338C76.4059 9.67752 66.0092 6.1055 54.9985 6.1055C46.6939 6.10551 38.4962 8.22124 31.285 12.2268L28.3193 6.89013C36.4346 2.38083 45.6585 -0.000512941 54.9985 -0.000514922C67.3867 -0.00051755 79.0815 4.01723 88.8216 11.6223Z" fill="#D8BC75"/>
<path opacity="0.2" d="M110 55.0241C110 67.2911 106.048 78.8956 98.5678 88.5828L93.7329 84.852C100.379 76.2425 103.894 65.9264 103.894 55.021L110 55.021L110 55.0241Z" fill="#D8BC75"/>
<path opacity="0.2" d="M102.587 27.4432L97.3066 30.5115C96.0055 28.2736 94.515 26.1243 92.8779 24.1185L97.606 20.2534C99.4477 22.5095 101.124 24.9275 102.587 27.4432Z" fill="#D8BC75"/>
<path opacity="0.2" d="M24.8404 16.5561C16.0105 23.4833 9.78894 33.2896 7.32108 44.1614L1.36523 42.8119C4.14158 30.5755 11.142 19.545 21.0715 11.7537L24.8404 16.5561Z" fill="#D8BC75"/>
<path opacity="0.2" d="M6.60641 48.0175C6.27655 50.3225 6.10856 52.6795 6.10856 55.0242L0 55.0242C-1.15168e-07 52.3894 0.189365 49.7425 0.558933 47.1535L6.60641 48.0175Z" fill="#D8BC75"/>
<path d="M68.1392 68.1267C77.9977 58.4317 78.1302 42.5804 68.4352 32.722C68.3373 32.6226 68.2387 32.524 68.1392 32.4261C58.2809 22.5531 42.2854 22.5414 32.4124 32.3998C22.5394 42.2581 22.5277 58.2537 32.3862 68.1266C42.2447 77.9994 58.2402 78.0113 68.113 68.1528C68.1217 68.1442 68.1305 68.1354 68.1392 68.1267ZM50.2889 71.9841C38.3001 71.9791 28.5853 62.2561 28.5904 50.2673C28.5955 38.2784 38.3185 28.5635 50.3073 28.5686C62.2962 28.5737 72.0111 38.2967 72.006 50.2855C72.0035 56.0419 69.715 61.5615 65.6433 65.6307C61.5704 69.7011 56.0472 71.9865 50.2889 71.9841Z" fill="#D8BC75"/>
<path d="M64.0552 36.5853C56.573 29.0035 44.361 28.9227 36.7792 36.4051C36.7187 36.4647 36.6586 36.5248 36.599 36.5853C29.0172 44.0675 28.9364 56.2794 36.4187 63.8612C36.4784 63.9218 36.5385 63.9818 36.599 64.0415C44.5596 71.2444 56.8522 70.6301 64.0552 62.6695C70.7547 55.2653 70.7547 43.9896 64.0552 36.5853Z" fill="#D8BC75"/>
<path d="M84.3887 80.4423C84.2585 80.2793 84.1106 80.1313 83.9476 80.0011L71.6188 67.6724C71.0546 68.4124 70.4486 69.1195 69.8034 69.7903C69.1327 70.4354 68.4256 71.0414 67.6855 71.6056L80.0143 83.9344C80.9787 85.1422 82.7396 85.3397 83.9474 84.3755C85.1553 83.4113 85.3529 81.6501 84.3887 80.4423Z" fill="#D8BC75"/>
</svg>
