<svg width="110" height="110" viewBox="0 0 110 110" fill="none" xmlns="http://www.w3.org/2000/svg">
<path opacity="0.2" d="M27.4024 95.3698L23.9511 100.407C19.6873 97.4855 15.8542 93.9837 12.5586 89.9934L17.2714 86.1069C20.2004 89.6576 23.609 92.7747 27.4024 95.3698Z" fill="#D8BC75"/>
<path opacity="0.2" d="M88.8226 98.3772C79.0825 105.982 67.3876 110 54.9995 110C45.6595 110 36.4355 107.619 28.3203 103.109L31.286 97.7727C38.4972 101.778 46.6979 103.894 54.9995 103.894C66.0101 103.894 76.4069 100.322 85.0628 93.5656L88.8226 98.3772Z" fill="#D8BC75"/>
<path opacity="0.2" d="M88.8226 11.6225L85.0628 16.4341C76.4069 9.67776 66.0101 6.10575 54.9995 6.10575C46.6949 6.10575 38.4972 8.22148 31.286 12.227L28.3203 6.89037C36.4355 2.38107 45.6595 -0.0002688 54.9995 -0.000270781C67.3876 -0.000273409 79.0825 4.01748 88.8226 11.6225Z" fill="#D8BC75"/>
<path opacity="0.2" d="M110 55.0243C110 67.2913 106.047 78.8958 98.5673 88.583L93.7324 84.8522C100.379 76.2427 103.894 65.9266 103.894 55.0213L110 55.0213L110 55.0243Z" fill="#D8BC75"/>
<path opacity="0.2" d="M102.587 27.4434L97.3057 30.5117C96.0045 28.2739 94.514 26.1245 92.877 24.1187L97.605 20.2536C99.4467 22.5098 101.124 24.9278 102.587 27.4434Z" fill="#D8BC75"/>
<path opacity="0.2" d="M24.8404 16.5563C16.0105 23.4836 9.78894 33.2899 7.32108 44.1616L1.36523 42.8122C4.14158 30.5757 11.142 19.5452 21.0715 11.7539L24.8404 16.5563Z" fill="#D8BC75"/>
<path opacity="0.2" d="M6.60641 48.0178C6.27655 50.3228 6.10856 52.6797 6.10856 55.0244L0 55.0244C-1.15168e-07 52.3897 0.189365 49.7427 0.558933 47.1538L6.60641 48.0178Z" fill="#D8BC75"/>

</svg>
