<svg width="110" height="110" viewBox="0 0 110 110" fill="none" xmlns="http://www.w3.org/2000/svg">
<path opacity="0.2" d="M27.4029 95.3695L23.9516 100.407C19.6878 97.4853 15.8547 93.9834 12.5591 89.9932L17.2718 86.1067C20.2009 89.6573 23.6095 92.7745 27.4029 95.3695Z" fill="#D8BC75"/>
<path opacity="0.2" d="M88.8216 98.3769C79.0815 105.982 67.3867 110 54.9985 110C45.6585 110 36.4346 107.618 28.3193 103.109L31.285 97.7724C38.4962 101.778 46.6969 103.894 54.9985 103.894C66.0092 103.894 76.4059 100.322 85.0618 93.5654L88.8216 98.3769Z" fill="#D8BC75"/>
<path opacity="0.2" d="M88.8216 11.6223L85.0618 16.4338C76.4059 9.67752 66.0092 6.1055 54.9985 6.1055C46.6939 6.10551 38.4962 8.22124 31.285 12.2268L28.3193 6.89013C36.4346 2.38083 45.6585 -0.000512941 54.9985 -0.000514922C67.3867 -0.00051755 79.0815 4.01723 88.8216 11.6223Z" fill="#D8BC75"/>
<path opacity="0.2" d="M110 55.0241C110 67.2911 106.048 78.8956 98.5678 88.5828L93.7329 84.852C100.379 76.2425 103.894 65.9264 103.894 55.021L110 55.021L110 55.0241Z" fill="#D8BC75"/>
<path opacity="0.2" d="M102.587 27.4432L97.3066 30.5115C96.0055 28.2736 94.515 26.1243 92.8779 24.1185L97.606 20.2534C99.4477 22.5095 101.124 24.9275 102.587 27.4432Z" fill="#D8BC75"/>
<path opacity="0.2" d="M24.8404 16.5561C16.0105 23.4833 9.78894 33.2896 7.32108 44.1614L1.36523 42.8119C4.14158 30.5755 11.142 19.545 21.0715 11.7537L24.8404 16.5561Z" fill="#D8BC75"/>
<path opacity="0.2" d="M6.60641 48.0175C6.27655 50.3225 6.10856 52.6795 6.10856 55.0242L0 55.0242C-1.15168e-07 52.3894 0.189365 49.7425 0.558933 47.1535L6.60641 48.0175Z" fill="#D8BC75"/>
<path d="M55 25C38.4588 25 25 38.4588 25 55C25 71.5412 38.4588 85 55 85C71.5412 85 85 71.5412 85 55C85 38.4588 71.5412 25 55 25ZM55 28.75C60.2988 28.75 65.2262 30.34 69.355 33.0513C67.9188 33.85 66.5875 35.53 66.5875 39.1C66.5875 40.9975 67.8812 43.1987 69.3775 45.7488C71.1737 48.8088 73.4013 52.615 72.8425 55.3638C72.2275 57.1825 70.6675 61.3112 68.9762 65.7175L61.225 43.4425C61.3825 43.4013 61.5588 43.375 61.7087 43.3263C62.6912 43 63.22 41.9388 62.8937 40.9563C62.5637 39.9738 61.5063 39.4525 60.52 39.7712C58.9225 40.3038 56.0312 40.2925 54.295 40.2888H53.7738H53.2525C51.5275 40.2925 48.625 40.3038 47.0275 39.7712C46.0562 39.4412 44.9913 39.9738 44.6613 40.9563C44.3312 41.9388 44.8638 43 45.8463 43.3263C46.6375 43.5925 47.5712 43.735 48.5237 43.84L53.1362 55.8325L48.775 66.835L41.3238 43.525C41.5975 43.4613 41.89 43.4125 42.1413 43.3263C43.1238 43 43.6562 41.9388 43.3263 40.9563C42.9963 39.9738 41.9388 39.4412 40.9563 39.7712C39.3625 40.3038 36.4638 40.2888 34.7275 40.2888H34.2137C33.8763 40.2888 33.5988 40.2625 33.3138 40.24C38.0425 33.31 45.9963 28.75 55 28.75ZM28.75 55C28.75 52.0525 29.26 49.225 30.16 46.5775L41.665 77.5713C33.9512 72.9925 28.75 64.6038 28.75 55ZM55 81.25C52.405 81.25 49.9037 80.8563 47.5337 80.155L55.1238 61L62.4888 80.1512C60.115 80.8563 57.6025 81.25 55 81.25ZM68.4213 77.515C70.8513 71.2862 75.0363 60.4975 76.2925 56.8488L76.3413 56.8637C76.3937 56.7137 76.45 56.5187 76.4875 56.29C76.9112 55.1125 77.2712 54.0362 77.56 53.1287C78.4862 50.2 79.075 47.6238 79.3825 45.3438C80.575 48.3363 81.25 51.5875 81.25 55C81.25 64.5662 76.09 72.9287 68.4213 77.515Z" fill="#D8BC75"/>
</svg>
