<svg width="110" height="110" viewBox="0 0 110 110" fill="none" xmlns="http://www.w3.org/2000/svg">
<g opacity="0.2">
<path d="M27.4024 95.3698L23.9511 100.407C19.6873 97.4855 15.8542 93.9837 12.5586 89.9934L17.2713 86.1069C20.2004 89.6576 23.609 92.7747 27.4024 95.3698Z" fill="#D8BC75"/>
<path d="M88.8226 98.3772C79.0825 105.982 67.3876 110 54.9995 110C45.6595 110 36.4355 107.619 28.3203 103.109L31.286 97.7727C38.4972 101.778 46.6979 103.894 54.9995 103.894C66.0101 103.894 76.4069 100.322 85.0627 93.5656L88.8226 98.3772Z" fill="#D8BC75"/>
<path d="M88.8206 11.6225L85.0608 16.4341C76.405 9.67776 66.0082 6.10575 54.9975 6.10575C46.6929 6.10575 38.4952 8.22149 31.2841 12.227L28.3184 6.89037C36.4336 2.38108 45.6575 -0.000264985 54.9975 -0.000266967C67.3857 -0.000269595 79.0805 4.01748 88.8206 11.6225Z" fill="#D8BC75"/>
<path d="M110 55.0243C110 67.2913 106.047 78.8958 98.5673 88.583L93.7324 84.8522C100.379 76.2427 103.894 65.9266 103.894 55.0213L110 55.0213L110 55.0243Z" fill="#D8BC75"/>
<path d="M102.587 27.4429L97.3057 30.5112C96.0045 28.2734 94.514 26.1241 92.877 24.1182L97.605 20.2531C99.4467 22.5093 101.124 24.9273 102.587 27.4429Z" fill="#D8BC75"/>
<path d="M24.8404 16.5563C16.0105 23.4836 9.78894 33.2899 7.32108 44.1616L1.36523 42.8122C4.14158 30.5757 11.142 19.5452 21.0715 11.7539L24.8404 16.5563Z" fill="#D8BC75"/>
<path d="M6.60641 48.0178C6.27655 50.3228 6.10856 52.6797 6.10856 55.0244L0 55.0244C-1.15168e-07 52.3897 0.189365 49.7427 0.558933 47.1538L6.60641 48.0178Z" fill="#D8BC75"/>
</g>
<g clip-path="url(#clip0)">
<path d="M72.2226 56.0139C77.4122 56.0139 82.0382 58.4735 85.0001 62.2885V54.0038L74.1589 42.8833L58.7086 58.0396L49.6112 49.7785L26.5352 73.3805L56.0712 73.3506C56.0447 72.9725 56.0302 72.591 56.0302 72.2062C56.0303 63.2778 63.2941 56.0139 72.2226 56.0139Z" fill="#D8BC75"/>
<path d="M58.6157 53.2258L74.2321 37.9064L85 48.9889V35.7827L73.5589 25L60.465 37.5052L53.943 30.8097L40.5275 44.2252L35.0702 38.6444L25 49.5055V69.9413L49.4627 44.9143L58.6157 53.2258Z" fill="#D8BC75"/>
<path d="M72.2216 59.4121C65.167 59.4121 59.4277 65.1515 59.4277 72.2061C59.4277 79.2606 65.1671 85 72.2216 85C79.2671 84.9999 84.9991 79.2606 84.9991 72.2059C84.9991 65.1514 79.2671 59.4121 72.2216 59.4121ZM70.7708 77.2153L66.1132 72.5577L68.5889 70.082L70.7707 72.2638L75.8378 67.1968L78.3135 69.6725L70.7708 77.2153Z" fill="#D8BC75"/>
</g>
<defs>
<clipPath id="clip0">
<rect width="60" height="60" fill="white" transform="translate(25 25)"/>
</clipPath>
</defs>
</svg>
