<svg width="110" height="110" viewBox="0 0 110 110" fill="none" xmlns="http://www.w3.org/2000/svg">
<path opacity="0.2" d="M27.4029 95.3695L23.9516 100.407C19.6878 97.4853 15.8547 93.9834 12.5591 89.9932L17.2718 86.1067C20.2009 89.6573 23.6095 92.7745 27.4029 95.3695Z" fill="#D8BC75"/>
<path opacity="0.2" d="M88.8216 98.3769C79.0815 105.982 67.3867 110 54.9985 110C45.6585 110 36.4346 107.618 28.3193 103.109L31.285 97.7724C38.4962 101.778 46.6969 103.894 54.9985 103.894C66.0092 103.894 76.4059 100.322 85.0618 93.5654L88.8216 98.3769Z" fill="#D8BC75"/>
<path opacity="0.2" d="M88.8216 11.6223L85.0618 16.4338C76.4059 9.67752 66.0092 6.1055 54.9985 6.1055C46.6939 6.10551 38.4962 8.22124 31.285 12.2268L28.3193 6.89013C36.4346 2.38083 45.6585 -0.000512941 54.9985 -0.000514922C67.3867 -0.00051755 79.0815 4.01723 88.8216 11.6223Z" fill="#D8BC75"/>
<path opacity="0.2" d="M110 55.0241C110 67.2911 106.048 78.8956 98.5678 88.5828L93.7329 84.852C100.379 76.2425 103.894 65.9264 103.894 55.021L110 55.021L110 55.0241Z" fill="#D8BC75"/>
<path opacity="0.2" d="M102.587 27.4432L97.3066 30.5115C96.0055 28.2736 94.515 26.1243 92.8779 24.1185L97.606 20.2534C99.4477 22.5095 101.124 24.9275 102.587 27.4432Z" fill="#D8BC75"/>
<path opacity="0.2" d="M24.8404 16.5561C16.0105 23.4833 9.78894 33.2896 7.32108 44.1614L1.36523 42.8119C4.14158 30.5755 11.142 19.545 21.0715 11.7537L24.8404 16.5561Z" fill="#D8BC75"/>
<path opacity="0.2" d="M6.60641 48.0175C6.27655 50.3225 6.10856 52.6795 6.10856 55.0242L0 55.0242C-1.15168e-07 52.3894 0.189365 49.7425 0.558933 47.1535L6.60641 48.0175Z" fill="#D8BC75"/>
<path d="M73.9319 59.1737C64.7414 59.5321 56.0402 61.9219 48.2874 65.8827L38.3184 71.6391C35.6819 73.1593 32.315 72.2469 30.8019 69.624L25.7355 60.8513C24.2192 58.2237 25.123 54.8511 27.7506 53.3348L36.01 48.5655C36.4882 48.2894 37.0999 48.4532 37.3761 48.9316L43.8661 60.1725C44.1471 60.6592 44.7753 60.8207 45.2576 60.5234C45.724 60.2359 45.8514 59.6111 45.5774 59.1366L39.0405 47.8144C38.7809 47.3646 38.9084 46.7905 39.3353 46.4946C46.1539 41.7672 51.9225 35.7462 56.3527 28.7241C58.031 26.0616 61.9417 26.1329 63.5191 28.8641L77.3933 52.8973C78.9701 55.6226 77.0823 59.0512 73.9319 59.1737ZM75.7122 42.4355C76.2259 39.4957 74.5028 36.5471 71.7179 35.5378C70.8425 35.2205 70.0483 36.1732 70.5137 36.9796C71.6217 38.8993 72.7338 40.8256 73.8582 42.7724C74.3279 43.5855 75.5506 43.3606 75.7122 42.4355ZM52.6276 77.8205L47.8819 69.5824C47.6062 69.1037 46.9938 68.9395 46.5151 69.2157C43.9432 70.6996 43.8459 70.7572 40.4152 72.7375C39.9368 73.0136 39.7723 73.6257 40.0486 74.1041L44.8023 82.3369C45.4117 83.3912 46.5076 83.9645 47.6237 83.9645C48.7062 83.9645 49.1202 83.5982 51.4375 82.2607C52.9901 81.3644 53.5238 79.3718 52.6276 77.8205ZM83.0139 34.8318C83.4922 34.5556 83.6562 33.944 83.38 33.4657C83.104 32.9876 82.4926 32.8235 82.0139 33.0997L79.4265 34.5936C78.5409 35.1049 78.9113 36.4599 79.9275 36.4599C80.2831 36.4598 80.2119 36.4496 83.0139 34.8318ZM73.8184 29.6497L74.4495 27.2952C74.5925 26.7617 74.2758 26.2134 73.7424 26.0704C73.2085 25.9276 72.6605 26.244 72.5175 26.7775L71.8865 29.1321C71.7166 29.7661 72.1944 30.3913 72.853 30.3913C73.2945 30.3911 73.6987 30.0965 73.8184 29.6497ZM84.9658 45.5098C85.1088 44.9763 84.792 44.4279 84.2586 44.2851L81.9039 43.6542C81.3705 43.5115 80.8221 43.8279 80.6791 44.3613C80.5361 44.8947 80.8529 45.4431 81.3863 45.5861C83.9615 46.2761 83.8201 46.2514 84.0004 46.2514C84.4419 46.2514 84.846 45.9566 84.9658 45.5098Z" fill="#D8BC75"/>
</svg>
