<svg width="101" height="101" viewBox="0 0 101 101" fill="none" xmlns="http://www.w3.org/2000/svg">
<g clip-path="url(#clip0)">
<path d="M97.5947 41.8035H68.1042C67.9634 44.3996 66.8953 46.7487 65.1863 48.4949H94.2489V70.7861L90.776 58.5582C90.3674 57.1207 89.0539 56.1273 87.5575 56.1273H16.7877V37.5185H37.2869V30.8271H13.4421C11.5929 30.8271 10.0963 32.325 10.0963 34.173V56.1273H3.40487C2.35608 56.1273 1.36616 56.6188 0.735313 57.4553C0.101561 58.2935 -0.100775 59.3783 0.186559 60.3879L9.73306 94.0098C10.4325 96.4728 12.6819 98.172 15.2422 98.1715L95.2152 98.1581C98.3773 98.1574 100.94 95.594 100.94 92.4321V45.1491C100.94 43.3015 99.4441 41.8035 97.5947 41.8035Z" fill="#343434"/>
<path d="M100.941 100.997V100.968C100.927 100.994 100.925 101.006 100.941 100.997Z" fill="#343434"/>
<path d="M37.1854 21.0919H43.9782V41.2366C43.9782 43.2817 45.6315 44.9367 47.6733 44.9367H57.7692C59.8148 44.9367 61.4712 43.2819 61.4712 41.2366V21.0919H68.2607C69.381 21.0919 70.397 20.414 70.8286 19.3749C71.2565 18.3409 71.0218 17.1451 70.2245 16.3494L54.6846 0.814942C54.1458 0.272408 53.4335 0 52.7214 0C52.0124 0 51.3003 0.272408 50.7575 0.814942L35.2249 16.3496C34.4245 17.1453 34.1925 18.3409 34.6241 19.3751C35.0553 20.4142 36.0647 21.0919 37.1854 21.0919Z" fill="#343434"/>
</g>
<defs>
<clipPath id="clip0">
<rect width="101" height="101" fill="white"/>
</clipPath>
</defs>
</svg>
