<svg width="16" height="11" viewBox="0 0 16 11" fill="none" xmlns="http://www.w3.org/2000/svg">
<path d="M10.606 5.58141L16.0001 8.99148V2.02734L10.606 5.58141Z" fill="#D8BC75"/>
<path d="M0 2.02734V8.99148L5.3941 5.58141L0 2.02734Z" fill="#D8BC75"/>
<path d="M14.9996 0H0.999316C0.500306 0 0.104298 0.372007 0.0292969 0.851017L7.99945 6.10212L15.9696 0.851017C15.8946 0.372007 15.4986 0 14.9996 0Z" fill="#D8BC75"/>
<path d="M9.69041 6.18655L8.27539 7.11856C8.19139 7.17357 8.09638 7.20057 8.00038 7.20057C7.90438 7.20057 7.80938 7.17357 7.72538 7.11856L6.31035 6.18555L0.0322266 10.1566C0.109228 10.6316 0.503236 11.0006 1.00025 11.0006H15.0005C15.4975 11.0006 15.8915 10.6316 15.9685 10.1566L9.69041 6.18655Z" fill="#D8BC75"/>
</svg>
