<svg width="282" height="299" viewBox="0 0 282 299" fill="none" xmlns="http://www.w3.org/2000/svg">
<path opacity="0.2" d="M33.0863 179.953L19.6188 183.066C16.9847 171.666 15.9568 159.958 16.573 148.26L30.381 148.997C29.8269 159.402 30.7361 169.818 33.0863 179.953Z" fill="#D8BC75"/>
<path opacity="0.2" d="M130.872 279.016C102.989 276.779 77.3398 265.569 56.6876 246.599C41.117 232.297 29.3863 214.202 22.7625 194.258L35.8786 189.903C41.7666 207.623 52.1983 223.708 66.0377 236.42C84.3936 253.28 107.196 263.246 131.972 265.237L130.872 279.016Z" fill="#D8BC75"/>
<path opacity="0.2" d="M263.718 134.388L250.082 136.652C245.998 112.134 234.135 90.2584 215.78 73.3978C201.935 60.6811 185.029 51.6551 166.874 47.2904L170.102 33.8523C190.535 38.7617 209.559 48.9163 225.13 63.2185C245.782 82.1884 259.126 106.795 263.718 134.388Z" fill="#D8BC75"/>
<path opacity="0.2" d="M232.564 239.173C213.78 259.623 189.421 272.917 162.117 277.612L159.77 263.989C184.033 259.813 205.691 247.999 222.39 229.818L232.569 239.168L232.564 239.173Z" fill="#D8BC75"/>
<path opacity="0.2" d="M262.441 181.842L248.939 178.87C250.196 173.147 251.003 167.282 251.345 161.431L265.146 162.227C264.761 168.809 263.854 175.408 262.441 181.842Z" fill="#D8BC75"/>
<path opacity="0.2" d="M149.501 44.6391C124.173 42.6663 98.7847 49.4873 78.0227 63.8325L70.1601 52.4628C93.5261 36.3148 122.087 28.6456 150.571 30.8617L149.501 44.6391Z" fill="#D8BC75"/>
<path opacity="0.2" d="M70.9263 69.1664C66.8468 72.504 62.9576 76.176 59.3671 80.0848L49.1836 70.7308C53.2182 66.3385 57.5871 62.2157 62.1677 58.4656L70.9263 69.1664Z" fill="#D8BC75"/>
</svg>
