<svg width="206" height="206" viewBox="0 0 206 206" fill="none" xmlns="http://www.w3.org/2000/svg">
<path d="M21.9569 166.023C7.76884 147.847 0.270508 126.02 0.270508 102.907C0.270508 85.4777 4.71422 68.2624 13.1248 53.1212L14.3342 53.7919C6.0342 68.7256 1.65269 85.7128 1.65269 102.907C1.65269 125.709 9.04736 147.246 23.0489 165.173L21.9569 166.023Z" fill="#D8BC75"/>
<path d="M19.3097 45.7581L18.1694 44.9768C23.6221 37.019 30.1599 29.8633 37.6098 23.7169L38.4875 24.7816C31.1343 30.845 24.6864 37.8971 19.3097 45.7581Z" fill="#D8BC75"/>
<path d="M183.865 166.023L182.773 165.173C196.768 147.246 204.17 125.709 204.17 102.907C204.17 85.7128 199.781 68.7325 191.488 53.7919L192.698 53.1212C201.108 68.2624 205.552 85.4777 205.552 102.907C205.552 126.027 198.053 147.854 183.865 166.023Z" fill="#D8BC75"/>
<path d="M102.863 205.55C79.9671 205.55 58.3153 198.173 40.2363 184.214L41.0795 183.121C58.9096 196.887 80.2781 204.167 102.863 204.167V205.55Z" fill="#D8BC75"/>
<path d="M154.328 191.715L153.637 190.519C158.268 187.829 162.718 184.739 166.872 181.344L167.749 182.416C163.541 185.859 159.021 188.991 154.328 191.715Z" fill="#D8BC75"/>
<path d="M182.525 40.4413C168.177 22.1543 147.873 9.27396 125.351 4.15776L125.655 2.80957C148.488 7.99491 169.069 21.0551 183.616 39.584L182.525 40.4413Z" fill="#D8BC75"/>
<path d="M117.369 2.68513C112.6 2.00066 107.721 1.65497 102.87 1.65497V0.272217C107.79 0.272217 112.732 0.62482 117.569 1.3162L117.369 2.68513Z" fill="#D8BC75"/>
</svg>
