<svg width="50" height="50" viewBox="0 0 50 50" fill="none" xmlns="http://www.w3.org/2000/svg">
<path d="M25 0C11.2152 0 0 11.2152 0 25C0 38.7848 11.2152 50 25 50C29.3961 50 33.7188 48.8434 37.5031 46.6538L34.375 41.2429C31.54 42.8833 28.2974 43.75 25 43.75C14.6607 43.75 6.24997 35.3393 6.24997 25C6.24997 14.6607 14.6607 6.24997 25 6.24997C35.3393 6.24997 43.75 14.6607 43.75 25V27.7221C43.75 29.7669 42.4363 31.25 40.625 31.25C38.9022 31.25 37.4999 29.8477 37.4999 28.1249V15.625H33.1801C30.9817 13.7044 28.1415 12.4999 25 12.4999C18.1076 12.4999 12.4999 18.1076 12.4999 25C12.4999 31.8924 18.1076 37.5 25 37.5C28.2822 37.5 31.2496 36.2021 33.4824 34.1256C35.2034 36.1708 37.7489 37.5 40.625 37.5C45.8817 37.5 50 33.2048 50 27.7221V25C50 11.2152 38.7848 0 25 0V0ZM25 31.25C21.553 31.25 18.75 28.4469 18.75 25C18.75 21.553 21.5531 18.75 25 18.75C28.447 18.75 31.25 21.5531 31.25 25C31.25 28.447 28.447 31.25 25 31.25V31.25Z" fill="#D8BC75"/>
</svg>
