<svg width="38" height="51" viewBox="0 0 38 51" fill="none" xmlns="http://www.w3.org/2000/svg">
<path d="M36.9849 44.2459L31.1624 37.0294C30.6767 36.4305 29.6519 35.9514 28.8817 35.9613L26.4229 36.0079C24.3152 37.2207 20.1896 39.009 14.4836 29.1224C8.77755 19.2392 12.3875 16.5592 14.4935 15.3432L15.7612 13.2371C16.1588 12.575 16.2553 11.4471 15.9791 10.7268L12.642 2.07626C12.3642 1.35427 11.5158 0.881822 10.7589 1.02156L6.6615 1.77515C-1.28367 6.36492 -1.34855 20.0993 6.51844 33.7222C14.3854 47.3484 26.3115 54.1624 34.2583 49.5743L36.9583 46.4002C37.4573 45.8146 37.469 44.8431 36.9849 44.2459Z" fill="#D8BC75"/>
<path d="M23.8329 11.7112C31.7115 13.824 36.4044 21.9488 34.2917 29.8291C34.1403 30.393 34.4764 30.9719 35.0403 31.1217C35.6043 31.2714 36.1848 30.9403 36.3346 30.3714C38.7467 21.3682 33.3851 12.0855 24.3802 9.67171C23.8163 9.52199 23.2357 9.85304 23.0876 10.417C22.9379 10.9826 23.2706 11.5615 23.8329 11.7112Z" fill="#D8BC75"/>
<path d="M22.7414 15.7954C28.3675 17.2992 31.7179 23.1067 30.2124 28.7329C30.0594 29.2968 30.3921 29.8758 30.9577 30.0271C31.5216 30.1769 32.1022 29.8441 32.2503 29.2769C34.0602 22.5245 30.0394 15.5625 23.287 13.7509C22.7214 13.5978 22.1441 13.9338 21.9928 14.4978C21.843 15.0667 22.1774 15.6457 22.7414 15.7954Z" fill="#D8BC75"/>
<path d="M21.6482 19.8765C25.0236 20.7798 27.0332 24.265 26.1298 27.6387C25.9768 28.206 26.3112 28.7832 26.8751 28.933C27.4391 29.0843 28.0197 28.7516 28.1694 28.1844C29.3755 23.6844 26.6938 19.0398 22.1922 17.8353C21.6283 17.6823 21.0493 18.0183 20.898 18.5806C20.7499 19.1462 21.0826 19.7268 21.6482 19.8765Z" fill="#D8BC75"/>
<path d="M20.5539 23.9583C21.6784 24.2594 22.3505 25.4222 22.0477 26.5451C21.8964 27.1141 22.2307 27.6897 22.793 27.8394C23.3603 27.9941 23.9375 27.6597 24.0873 27.0941C24.6911 24.845 23.352 22.5226 21.1012 21.9204C20.5372 21.7691 19.9566 22.1001 19.8069 22.6657C19.6555 23.2247 19.9899 23.8053 20.5539 23.9583Z" fill="#D8BC75"/>
</svg>
