<svg width="50" height="50" viewBox="0 0 50 50" fill="none" xmlns="http://www.w3.org/2000/svg">
<path d="M45.7353 35.0559C45.026 34.6663 44.1354 34.9254 43.7461 35.6344C43.3565 36.3435 43.6155 37.2341 44.3246 37.6235C46.0695 38.5821 47.0703 39.6448 47.0703 40.5392C47.0703 41.633 45.5205 43.3283 41.1706 44.8062C36.8732 46.2663 31.1304 47.0703 25 47.0703C18.8696 47.0703 13.1268 46.2663 8.82939 44.8062C4.47949 43.3284 2.92969 41.633 2.92969 40.5392C2.92969 39.6448 3.93047 38.5821 5.67539 37.6234C6.38447 37.234 6.64346 36.3434 6.25391 35.6343C5.86436 34.9253 4.97402 34.6662 4.26475 35.0558C2.31924 36.1246 0 37.9436 0 40.5392C0 42.5288 1.36836 45.3655 7.88691 47.5802C12.4799 49.1406 18.5574 50 25 50C31.4426 50 37.5201 49.1406 42.1131 47.5802C48.6316 45.3655 50 42.5288 50 40.5392C50 37.9436 47.6808 36.1246 45.7353 35.0559Z" fill="#D8BC75"/>
<path d="M13.9406 42.6882C16.9143 43.5282 20.8419 43.9909 25 43.9909C29.1581 43.9909 33.0857 43.5283 36.0594 42.6882C39.6974 41.6605 41.542 40.1729 41.542 38.2668C41.542 36.3606 39.6974 34.8731 36.0594 33.8455C35.2518 33.6174 34.3734 33.4173 33.4396 33.2466C32.9325 34.1228 32.4012 35.0246 31.8456 35.9524C32.8792 36.1075 33.8496 36.2977 34.7309 36.5222C37.4082 37.2041 38.3863 37.9718 38.5874 38.2669C38.3862 38.5621 37.4083 39.3298 34.731 40.0116C32.1969 40.657 28.9365 41.0252 25.5026 41.0581C25.3363 41.0704 25.1687 41.0773 25 41.0773C24.8312 41.0773 24.6637 41.0704 24.4973 41.0581C21.0634 41.0252 17.803 40.6571 15.2689 40.0116C12.5916 39.3298 11.6136 38.562 11.4125 38.2669C11.6136 37.9718 12.5917 37.2041 15.269 36.5222C16.1503 36.2978 17.1207 36.1075 18.1544 35.9524C17.5988 35.0247 17.0675 34.1227 16.5604 33.2466C15.6266 33.4174 14.7481 33.6174 13.9406 33.8455C10.3026 34.8731 8.45801 36.3607 8.45801 38.2668C8.45801 40.1729 10.3026 41.6605 13.9406 42.6882Z" fill="#D8BC75"/>
<path d="M25 38.1478C26.304 38.1478 27.4885 37.4834 28.1688 36.3704C32.9354 28.5719 38.6172 18.2939 38.6172 13.6171C38.6172 6.10859 32.5086 0 25 0C17.4914 0 11.3828 6.10859 11.3828 13.6171C11.3828 18.2939 17.0647 28.5719 21.8313 36.3704C22.5115 37.4834 23.6961 38.1478 25 38.1478ZM19.5267 12.6821C19.5267 9.66426 21.982 7.20898 25 7.20898C28.018 7.20898 30.4733 9.66426 30.4733 12.6821C30.4733 15.7001 28.018 18.1554 25 18.1554C21.982 18.1554 19.5267 15.7002 19.5267 12.6821Z" fill="#D8BC75"/>
</svg>
