<svg width="420" height="37" viewBox="0 0 420 37" fill="none" xmlns="http://www.w3.org/2000/svg">
<g clip-path="url(#clip0)">
<path d="M203.805 0L205.016 1.88576C196.735 7.34798 192.584 12.7885 192.584 18.2291C192.584 21.0035 193.794 22.6075 196.194 23.0627L201.816 17.8389C203.611 18.4675 205.232 19.6163 206.703 21.2636C208.173 22.911 208.908 25.0351 208.908 27.6362C208.908 30.2373 207.892 32.4482 205.838 34.2689C203.784 36.0896 201.081 37.0217 197.751 37.0217C194.422 37.0217 191.632 35.8729 189.47 33.597C187.286 31.321 186.205 28.1781 186.205 24.1465C186.162 15.3679 192.043 7.3263 203.805 0ZM228.951 0L230.162 1.88576C221.881 7.34798 217.73 12.7885 217.73 18.2291C217.73 21.0035 218.94 22.6075 221.34 23.0627L226.962 17.8389C228.735 18.4675 230.378 19.6163 231.849 21.2636C233.319 22.911 234.054 25.0351 234.054 27.6362C234.054 30.2373 233.038 32.4482 230.984 34.2689C228.93 36.0896 226.227 37.0217 222.897 37.0217C219.546 37.0217 216.8 35.8729 214.616 33.597C212.432 31.321 211.33 28.1781 211.33 24.1465C211.308 15.3679 217.189 7.3263 228.951 0Z" fill="#D8BC75"/>
<path d="M246.703 35.8945H420L246.703 23.4094V35.8945Z" fill="white"/>
<path d="M172.843 35.8945H0L172.843 23.4094V35.8945Z" fill="white"/>
</g>
<defs>
<clipPath id="clip0">
<rect width="420" height="37" fill="white"/>
</clipPath>
</defs>
</svg>
