<svg width="137" height="49" viewBox="0 0 137 49" fill="none" xmlns="http://www.w3.org/2000/svg">
<path d="M25.1019 16.6L20.0639 32H16.2359L12.8479 21.572L9.34989 32H5.54389L0.483887 16.6H4.17989L7.65589 27.424L11.2859 16.6H14.5859L18.1059 27.512L21.6919 16.6H25.1019Z" fill="#D8BC75"/>
<path d="M136.102 16.6L131.064 32H127.236L123.848 21.572L120.35 32H116.544L111.484 16.6H115.18L118.656 27.424L122.286 16.6H125.586L129.106 27.512L132.692 16.6H136.102Z" fill="#D8BC75"/>
<path d="M106.729 0.700012L90.9281 49H78.9221L68.2961 16.294L57.3251 49H45.3881L29.5181 0.700012H41.1101L52.0121 34.648L63.3971 0.700012H73.7471L84.7871 34.924L96.0341 0.700012H106.729Z" fill="#D8BC75"/>
</svg>
