<svg width="282" height="299" viewBox="0 0 282 299" fill="none" xmlns="http://www.w3.org/2000/svg">
<path opacity="0.2" d="M33.0863 179.953L19.6188 183.066C16.9847 171.666 15.9568 159.958 16.573 148.26L30.381 148.997C29.8269 159.402 30.7361 169.818 33.0863 179.953Z" fill="#D8BC75"/>
<path opacity="0.2" d="M130.872 279.016C102.989 276.779 77.3398 265.569 56.6876 246.599C41.1169 232.297 29.3863 214.202 22.7625 194.258L35.8786 189.903C41.7666 207.623 52.1982 223.708 66.0377 236.42C84.3935 253.28 107.196 263.246 131.972 265.237L130.872 279.016Z" fill="#D8BC75"/>
<path opacity="0.2" d="M263.718 134.388L250.082 136.652C245.998 112.134 234.135 90.2584 215.78 73.3978C201.935 60.6811 185.029 51.6551 166.874 47.2904L170.101 33.8523C190.535 38.7617 209.559 48.9163 225.13 63.2185C245.782 82.1884 259.126 106.795 263.718 134.388Z" fill="#D8BC75"/>
<path opacity="0.2" d="M232.564 239.173C213.78 259.623 189.421 272.917 162.117 277.612L159.77 263.989C184.033 259.813 205.691 247.999 222.39 229.818L232.569 239.168L232.564 239.173Z" fill="#D8BC75"/>
<path opacity="0.2" d="M262.44 181.842L248.938 178.87C250.196 173.147 251.002 167.282 251.345 161.431L265.145 162.227C264.761 168.809 263.854 175.408 262.44 181.842Z" fill="#D8BC75"/>
<path opacity="0.2" d="M149.5 44.6391C124.172 42.6663 98.7842 49.4873 78.0222 63.8325L70.1596 52.4628C93.5256 36.3148 122.087 28.6456 150.571 30.8617L149.5 44.6391Z" fill="#D8BC75"/>
<path opacity="0.2" d="M70.9263 69.1664C66.8468 72.504 62.9576 76.176 59.3671 80.0848L49.1836 70.7308C53.2182 66.3385 57.5871 62.2157 62.1677 58.4656L70.9263 69.1664Z" fill="#D8BC75"/>
<path d="M57.3097 97.7581L56.1694 96.9768C61.6221 89.019 68.1599 81.8633 75.6098 75.7169L76.4875 76.7816C69.1343 82.845 62.6864 89.8971 57.3097 97.7581Z" fill="#D8BC75"/>
<path d="M59.9564 218.023C45.7684 199.847 38.27 178.02 38.27 154.907C38.27 137.478 42.7137 120.262 51.1243 105.121L52.3337 105.792C44.0337 120.726 39.6522 137.713 39.6522 154.907C39.6522 177.709 47.0469 199.246 61.0484 217.173L59.9564 218.023Z" fill="#D8BC75"/>
<path d="M221.865 218.023L220.773 217.173C234.768 199.246 242.17 177.709 242.17 154.907C242.17 137.713 237.781 120.733 229.488 105.792L230.698 105.121C239.108 120.262 243.552 137.478 243.552 154.907C243.552 178.027 236.053 199.854 221.865 218.023Z" fill="#D8BC75"/>
<path d="M140.862 257.55C117.967 257.55 96.3148 250.173 78.2358 236.214L79.079 235.121C96.9091 248.887 118.278 256.167 140.862 256.167V257.55Z" fill="#D8BC75"/>
<path d="M192.328 243.715L191.637 242.519C196.267 239.829 200.718 236.739 204.871 233.344L205.749 234.416C201.54 237.859 197.02 240.991 192.328 243.715Z" fill="#D8BC75"/>
<path d="M220.525 92.4413C206.177 74.1543 185.873 61.274 163.351 56.1578L163.655 54.8096C186.488 59.9949 207.069 73.0551 221.616 91.584L220.525 92.4413Z" fill="#D8BC75"/>
<path d="M155.369 54.6851C150.6 54.0007 145.721 53.655 140.87 53.655V52.2722C145.79 52.2722 150.732 52.6248 155.569 53.3162L155.369 54.6851Z" fill="#D8BC75"/>
<path d="M97.1019 146.6L92.0639 162H88.2359L84.8479 151.572L81.3499 162H77.5439L72.4839 146.6H76.1799L79.6559 157.424L83.2859 146.6H86.5859L90.1059 157.512L93.6919 146.6H97.1019Z" fill="#D8BC75"/>
<path d="M208.102 146.6L203.064 162H199.236L195.848 151.572L192.35 162H188.544L183.484 146.6H187.18L190.656 157.424L194.286 146.6H197.586L201.106 157.512L204.692 146.6H208.102Z" fill="#D8BC75"/>
<path d="M178.729 130.7L162.928 179H150.922L140.296 146.294L129.325 179H117.388L101.518 130.7H113.11L124.012 164.648L135.397 130.7H145.747L156.787 164.924L168.034 130.7H178.729Z" fill="#D8BC75"/>
</svg>
