<svg width="125" height="93" viewBox="0 0 125 93" fill="none" xmlns="http://www.w3.org/2000/svg">
<path d="M9.07751 38.2472L0 38.2472L2.39262e-06 92.984L9.07751 92.984L9.07751 38.2472Z" fill="#D8BC75"/>
<path d="M22.015 43.5697L12.9375 43.5697L12.9375 92.9904L22.015 92.9904L22.015 43.5697Z" fill="#D8BC75"/>
<path d="M34.9745 20.5691L25.897 20.5691L25.897 92.9981L34.9745 92.9981L34.9745 20.5691Z" fill="#D8BC75"/>
<path d="M48.0458 -3.9679e-07L38.9683 0L38.9683 93L48.0458 93L48.0458 -3.9679e-07Z" fill="#D8BC75"/>
<path d="M60.9896 18.2726L51.9121 18.2726L51.9121 92.992L60.9896 92.992L60.9896 18.2726Z" fill="#D8BC75"/>
<path d="M73.0687 38.2472L63.9912 38.2472L63.9912 92.984L73.0687 92.984L73.0687 38.2472Z" fill="#D8BC75"/>
<path d="M86.0057 43.5697L76.9282 43.5697L76.9282 92.9904L86.0057 92.9904L86.0057 43.5697Z" fill="#D8BC75"/>
<path d="M98.9652 20.5691L89.8877 20.5691L89.8877 92.9981L98.9652 92.9981L98.9652 20.5691Z" fill="#D8BC75"/>
<path d="M112.036 -3.9679e-07L102.959 0L102.959 93L112.036 93L112.036 -3.9679e-07Z" fill="#D8BC75"/>
<path d="M124.981 18.2726L115.903 18.2726L115.903 92.992L124.981 92.992L124.981 18.2726Z" fill="#D8BC75"/>
</svg>
