<svg width="282" height="299" viewBox="0 0 282 299" fill="none" xmlns="http://www.w3.org/2000/svg">
<path opacity="0.2" d="M33.0863 179.953L19.6188 183.066C16.9847 171.666 15.9568 159.958 16.573 148.26L30.381 148.997C29.8269 159.402 30.7361 169.818 33.0863 179.953Z" fill="#D8BC75"/>
<path opacity="0.2" d="M130.872 279.016C102.989 276.779 77.3398 265.569 56.6876 246.599C41.1169 232.297 29.3863 214.202 22.7625 194.258L35.8786 189.903C41.7666 207.623 52.1982 223.708 66.0377 236.42C84.3935 253.28 107.196 263.246 131.972 265.237L130.872 279.016Z" fill="#D8BC75"/>
<path opacity="0.2" d="M263.718 134.388L250.082 136.652C245.998 112.134 234.135 90.2584 215.78 73.3978C201.935 60.6811 185.029 51.6551 166.874 47.2904L170.101 33.8523C190.535 38.7617 209.559 48.9163 225.13 63.2185C245.782 82.1884 259.126 106.795 263.718 134.388Z" fill="#D8BC75"/>
<path opacity="0.2" d="M232.564 239.173C213.779 259.623 189.421 272.917 162.117 277.612L159.77 263.989C184.033 259.813 205.69 247.999 222.39 229.818L232.568 239.168L232.564 239.173Z" fill="#D8BC75"/>
<path opacity="0.2" d="M262.44 181.842L248.938 178.87C250.196 173.147 251.002 167.282 251.345 161.431L265.145 162.227C264.761 168.809 263.854 175.408 262.44 181.842Z" fill="#D8BC75"/>
<path opacity="0.2" d="M149.5 44.6391C124.172 42.6663 98.7842 49.4873 78.0222 63.8325L70.1596 52.4628C93.5256 36.3148 122.087 28.6456 150.571 30.8617L149.5 44.6391Z" fill="#D8BC75"/>
<path opacity="0.2" d="M70.9263 69.1664C66.8468 72.504 62.9576 76.176 59.3671 80.0848L49.1836 70.7308C53.2182 66.3385 57.5871 62.2157 62.1677 58.4656L70.9263 69.1664Z" fill="#D8BC75"/>
<path d="M57.0397 97.4859L55.8994 96.7046C61.3521 88.7468 67.8898 81.5911 75.3398 75.4447L76.2175 76.5094C68.8643 82.5728 62.4164 89.6249 57.0397 97.4859Z" fill="#D8BC75"/>
<path d="M59.6864 217.751C45.4983 199.575 38 177.748 38 154.635C38 137.206 42.4437 119.99 50.8543 104.849L52.0637 105.52C43.7637 120.453 39.3822 137.441 39.3822 154.635C39.3822 177.437 46.7769 198.973 60.7783 216.901L59.6864 217.751Z" fill="#D8BC75"/>
<path d="M221.595 217.751L220.503 216.901C234.498 198.973 241.899 177.437 241.899 154.635C241.899 137.441 237.511 120.46 229.218 105.52L230.427 104.849C238.838 119.99 243.281 137.206 243.281 154.635C243.281 177.755 235.783 199.582 221.595 217.751Z" fill="#D8BC75"/>
<path d="M140.592 257.277C117.697 257.277 96.0448 249.9 77.9658 235.941L78.809 234.849C96.6391 248.614 118.008 255.895 140.592 255.895V257.277Z" fill="#D8BC75"/>
<path d="M192.058 243.443L191.367 242.247C195.997 239.557 200.448 236.467 204.602 233.072L205.479 234.144C201.271 237.587 196.751 240.719 192.058 243.443Z" fill="#D8BC75"/>
<path d="M220.255 92.1691C205.907 73.8821 185.603 61.0017 163.081 55.8855L163.385 54.5374C186.218 59.7227 206.799 72.7828 221.346 91.3118L220.255 92.1691Z" fill="#D8BC75"/>
<path d="M155.099 54.4129C150.33 53.7284 145.451 53.3828 140.6 53.3828V52C145.52 52 150.461 52.3526 155.299 53.044L155.099 54.4129Z" fill="#D8BC75"/>
<path d="M87.0775 146.247L78 146.247L78 200.984L87.0775 200.984L87.0775 146.247Z" fill="#D8BC75"/>
<path d="M100.015 151.57L90.9375 151.57L90.9375 200.99L100.015 200.99L100.015 151.57Z" fill="#D8BC75"/>
<path d="M112.974 128.569L103.897 128.569L103.897 200.998L112.974 200.998L112.974 128.569Z" fill="#D8BC75"/>
<path d="M126.046 108L116.968 108L116.968 201L126.046 201L126.046 108Z" fill="#D8BC75"/>
<path d="M138.99 126.273L129.912 126.273L129.912 200.992L138.99 200.992L138.99 126.273Z" fill="#D8BC75"/>
<path d="M151.069 146.247L141.991 146.247L141.991 200.984L151.069 200.984L151.069 146.247Z" fill="#D8BC75"/>
<path d="M164.006 151.57L154.928 151.57L154.928 200.99L164.006 200.99L164.006 151.57Z" fill="#D8BC75"/>
<path d="M176.965 128.569L167.888 128.569L167.888 200.998L176.965 200.998L176.965 128.569Z" fill="#D8BC75"/>
<path d="M190.036 108L180.959 108L180.959 201L190.036 201L190.036 108Z" fill="#D8BC75"/>
<path d="M202.981 126.273L193.903 126.273L193.903 200.992L202.981 200.992L202.981 126.273Z" fill="#D8BC75"/>
</svg>
