<svg width="57" height="51" viewBox="0 0 57 51" fill="none" xmlns="http://www.w3.org/2000/svg">
<path d="M2.21555 1.12425C2.21555 1.75208 1.71201 2.2485 1.10777 2.2485C0.503534 2.2485 0 1.75208 0 1.12425C0 0.511022 0.503534 0 1.10777 0C1.7264 0 2.21555 0.511022 2.21555 1.12425Z" fill="white"/>
<path d="M15.9118 1.12425C15.9118 1.75208 15.4083 2.2485 14.8041 2.2485C14.1854 2.2485 13.6963 1.73747 13.6963 1.12425C13.6963 0.511022 14.1854 0 14.8041 0C15.4227 0 15.9118 0.511022 15.9118 1.12425Z" fill="white"/>
<path d="M29.6076 1.12425C29.6076 1.75208 29.1041 2.2485 28.4999 2.2485C27.8812 2.2485 27.3921 1.73747 27.3921 1.12425C27.3921 0.496421 27.8956 0 28.4999 0C29.1041 0 29.6076 0.511022 29.6076 1.12425Z" fill="white"/>
<path d="M43.3037 1.12425C43.3037 1.75208 42.8002 2.2485 42.196 2.2485C41.5773 2.2485 41.0882 1.73747 41.0882 1.12425C41.0738 0.511022 41.5773 0 42.196 0C42.8002 0 43.3037 0.511022 43.3037 1.12425Z" fill="white"/>
<path d="M55.8778 2.2485C56.4896 2.2485 56.9856 1.74515 56.9856 1.12425C56.9856 0.503343 56.4896 0 55.8778 0C55.266 0 54.77 0.503343 54.77 1.12425C54.77 1.74515 55.266 2.2485 55.8778 2.2485Z" fill="white"/>
<path d="M2.21555 13.3158C2.21555 13.9436 1.71201 14.44 1.10777 14.44C0.503534 14.44 0 13.9436 0 13.3158C0 12.6879 0.503534 12.1915 1.10777 12.1915C1.7264 12.1915 2.21555 12.6879 2.21555 13.3158Z" fill="white"/>
<path d="M15.9118 13.3158C15.9118 13.9436 15.4083 14.44 14.8041 14.44C14.1854 14.44 13.6963 13.929 13.6963 13.3158C13.6963 12.6879 14.1998 12.1915 14.8041 12.1915C15.4227 12.1915 15.9118 12.6879 15.9118 13.3158Z" fill="white"/>
<path d="M29.6076 13.3158C29.6076 13.9436 29.1041 14.44 28.4999 14.44C27.8812 14.44 27.3921 13.929 27.3921 13.3158C27.3921 12.6879 27.8956 12.1915 28.4999 12.1915C29.1041 12.1915 29.6076 12.6879 29.6076 13.3158Z" fill="white"/>
<path d="M43.3039 13.3158C43.3039 13.9436 42.8004 14.44 42.1962 14.44C41.5775 14.44 41.0884 13.929 41.0884 13.3158C41.0884 12.6879 41.5919 12.1915 42.1962 12.1915C42.8004 12.1915 43.3039 12.6879 43.3039 13.3158Z" fill="white"/>
<path d="M55.8778 14.44C56.4896 14.44 56.9856 13.9367 56.9856 13.3158C56.9856 12.6949 56.4896 12.1915 55.8778 12.1915C55.266 12.1915 54.77 12.6949 54.77 13.3158C54.77 13.9367 55.266 14.44 55.8778 14.44Z" fill="white"/>
<path d="M2.21555 25.5073C2.21555 26.1351 1.71201 26.6316 1.10777 26.6316C0.503534 26.6316 0 26.1205 0 25.5073C0 24.8795 0.503534 24.3831 1.10777 24.3831C1.7264 24.3831 2.21555 24.8795 2.21555 25.5073Z" fill="white"/>
<path d="M15.9118 25.5073C15.9118 26.1351 15.4083 26.6316 14.8041 26.6316C14.1854 26.6316 13.6963 26.1205 13.6963 25.5073C13.6963 24.8795 14.1998 24.3831 14.8041 24.3831C15.4227 24.3831 15.9118 24.8795 15.9118 25.5073Z" fill="white"/>
<path d="M29.6076 25.5073C29.6076 26.1351 29.1041 26.6316 28.4999 26.6316C27.8812 26.6316 27.3921 26.1205 27.3921 25.5073C27.3921 24.8795 27.8956 24.3831 28.4999 24.3831C29.1041 24.3831 29.6076 24.8795 29.6076 25.5073Z" fill="white"/>
<path d="M43.3039 25.5073C43.3039 26.1351 42.8004 26.6316 42.1962 26.6316C41.5775 26.6316 41.0884 26.1205 41.0884 25.5073C41.0884 24.8795 41.5919 24.3831 42.1962 24.3831C42.8004 24.3831 43.3039 24.8795 43.3039 25.5073Z" fill="white"/>
<path d="M57.0002 25.5073C57.0002 26.1351 56.4967 26.6316 55.8924 26.6316C55.2738 26.6316 54.7847 26.1205 54.7847 25.5073C54.7847 24.8795 55.2882 24.3831 55.8924 24.3831C56.4967 24.3831 57.0002 24.8795 57.0002 25.5073Z" fill="white"/>
<path d="M2.21555 37.6842C2.21555 38.3121 1.71201 38.8085 1.10777 38.8085C0.503534 38.8231 0 38.3121 0 37.6842C0 37.0564 0.503534 36.56 1.10777 36.56C1.7264 36.56 2.21555 37.071 2.21555 37.6842Z" fill="white"/>
<path d="M15.9118 37.6842C15.9118 38.3121 15.4083 38.8085 14.8041 38.8085C14.1854 38.8085 13.6963 38.2975 13.6963 37.6842C13.6963 37.0564 14.1998 36.56 14.8041 36.56C15.4227 36.56 15.9118 37.071 15.9118 37.6842Z" fill="white"/>
<path d="M29.6076 37.6842C29.6076 38.3121 29.1041 38.8085 28.4999 38.8085C27.8812 38.8085 27.3921 38.2975 27.3921 37.6842C27.3921 37.0564 27.8956 36.56 28.4999 36.56C29.1041 36.56 29.6076 37.071 29.6076 37.6842Z" fill="white"/>
<path d="M43.3039 37.6842C43.3039 38.3121 42.8004 38.8085 42.1962 38.8085C41.5775 38.8085 41.0884 38.2975 41.0884 37.6842C41.0884 37.0564 41.5919 36.56 42.1962 36.56C42.8004 36.56 43.3039 37.071 43.3039 37.6842Z" fill="white"/>
<path d="M57.0002 37.6842C57.0002 38.3121 56.4967 38.8085 55.8924 38.8085C55.2738 38.8085 54.7847 38.2975 54.7847 37.6842C54.7847 37.0564 55.2882 36.56 55.8924 36.56C56.4967 36.56 57.0002 37.071 57.0002 37.6842Z" fill="white"/>
<path d="M2.21555 49.8758C2.21555 50.5036 1.71201 51 1.10777 51C0.503534 51 0 50.5036 0 49.8758C0 49.2479 0.503534 48.7515 1.10777 48.7515C1.7264 48.7515 2.21555 49.2625 2.21555 49.8758Z" fill="white"/>
<path d="M15.9118 49.8758C15.9118 50.5036 15.4083 51 14.8041 51C14.1854 51 13.6963 50.489 13.6963 49.8758C13.6963 49.2479 14.1998 48.7515 14.8041 48.7515C15.4227 48.7515 15.9118 49.2625 15.9118 49.8758Z" fill="white"/>
<path d="M29.6076 49.8758C29.6076 50.5036 29.1041 51 28.4999 51C27.8812 51 27.3921 50.489 27.3921 49.8758C27.3921 49.2479 27.8956 48.7515 28.4999 48.7515C29.1041 48.7515 29.6076 49.2625 29.6076 49.8758Z" fill="white"/>
<path d="M43.3039 49.8758C43.3039 50.5036 42.8004 51 42.1962 51C41.5775 51 41.0884 50.489 41.0884 49.8758C41.0884 49.2479 41.5919 48.7515 42.1962 48.7515C42.8004 48.7515 43.3039 49.2625 43.3039 49.8758Z" fill="white"/>
<path d="M55.8778 51C56.4896 51 56.9856 50.4967 56.9856 49.8758C56.9856 49.2549 56.4896 48.7515 55.8778 48.7515C55.266 48.7515 54.77 49.2549 54.77 49.8758C54.77 50.4967 55.266 51 55.8778 51Z" fill="white"/>
</svg>
