<svg width="109" height="97" viewBox="0 0 109 97" fill="none" xmlns="http://www.w3.org/2000/svg">
<path d="M4.23675 2.13828C4.23675 3.33238 3.27385 4.27655 2.11837 4.27655C0.962898 4.27655 0 3.33238 0 2.13828C0 0.971944 0.962898 0 2.11837 0C3.30136 0 4.23675 0.971944 4.23675 2.13828Z" fill="white"/>
<path d="M30.4277 2.13828C30.4277 3.33238 29.4648 4.27655 28.3093 4.27655C27.1263 4.27655 26.1909 3.30461 26.1909 2.13828C26.1909 0.971944 27.1263 0 28.3093 0C29.4923 0 30.4277 0.971944 30.4277 2.13828Z" fill="white"/>
<path d="M56.6181 2.13828C56.6181 3.33238 55.6552 4.27655 54.4997 4.27655C53.3167 4.27655 52.3813 3.30461 52.3813 2.13828C52.3813 0.944174 53.3442 0 54.4997 0C55.6552 0 56.6181 0.971944 56.6181 2.13828Z" fill="white"/>
<path d="M82.8091 2.13828C82.8091 3.33238 81.8462 4.27655 80.6907 4.27655C79.5077 4.27655 78.5724 3.30461 78.5724 2.13828C78.5448 0.971944 79.5077 0 80.6907 0C81.8462 0 82.8091 0.971944 82.8091 2.13828Z" fill="white"/>
<path d="M106.854 4.27655C108.024 4.27655 108.973 3.31921 108.973 2.13828C108.973 0.957339 108.024 0 106.854 0C105.684 0 104.736 0.957339 104.736 2.13828C104.736 3.31921 105.684 4.27655 106.854 4.27655Z" fill="white"/>
<path d="M4.23675 25.3261C4.23675 26.5202 3.27385 27.4644 2.11837 27.4644C0.962898 27.4644 0 26.5202 0 25.3261C0 24.132 0.962898 23.1878 2.11837 23.1878C3.30136 23.1878 4.23675 24.132 4.23675 25.3261Z" fill="white"/>
<path d="M30.4277 25.3261C30.4277 26.5202 29.4648 27.4644 28.3093 27.4644C27.1263 27.4644 26.1909 26.4924 26.1909 25.3261C26.1909 24.132 27.1538 23.1878 28.3093 23.1878C29.4923 23.1878 30.4277 24.132 30.4277 25.3261Z" fill="white"/>
<path d="M56.6181 25.3261C56.6181 26.5202 55.6552 27.4644 54.4997 27.4644C53.3167 27.4644 52.3813 26.4924 52.3813 25.3261C52.3813 24.132 53.3442 23.1878 54.4997 23.1878C55.6552 23.1878 56.6181 24.132 56.6181 25.3261Z" fill="white"/>
<path d="M82.809 25.3261C82.809 26.5202 81.8461 27.4644 80.6906 27.4644C79.5077 27.4644 78.5723 26.4924 78.5723 25.3261C78.5723 24.132 79.5352 23.1878 80.6906 23.1878C81.8461 23.1878 82.809 24.132 82.809 25.3261Z" fill="white"/>
<path d="M106.854 27.4644C108.024 27.4644 108.973 26.507 108.973 25.3261C108.973 24.1452 108.024 23.1878 106.854 23.1878C105.684 23.1878 104.736 24.1452 104.736 25.3261C104.736 26.507 105.684 27.4644 106.854 27.4644Z" fill="white"/>
<path d="M4.23675 48.5139C4.23675 49.708 3.27385 50.6522 2.11837 50.6522C0.962898 50.6522 0 49.6802 0 48.5139C0 47.3198 0.962898 46.3756 2.11837 46.3756C3.30136 46.3756 4.23675 47.3198 4.23675 48.5139Z" fill="white"/>
<path d="M30.4277 48.5139C30.4277 49.708 29.4648 50.6522 28.3093 50.6522C27.1263 50.6522 26.1909 49.6802 26.1909 48.5139C26.1909 47.3198 27.1538 46.3756 28.3093 46.3756C29.4923 46.3756 30.4277 47.3198 30.4277 48.5139Z" fill="white"/>
<path d="M56.6181 48.5139C56.6181 49.708 55.6552 50.6522 54.4997 50.6522C53.3167 50.6522 52.3813 49.6802 52.3813 48.5139C52.3813 47.3198 53.3442 46.3756 54.4997 46.3756C55.6552 46.3756 56.6181 47.3198 56.6181 48.5139Z" fill="white"/>
<path d="M82.809 48.5139C82.809 49.708 81.8461 50.6522 80.6906 50.6522C79.5077 50.6522 78.5723 49.6802 78.5723 48.5139C78.5723 47.3198 79.5352 46.3756 80.6906 46.3756C81.8461 46.3756 82.809 47.3198 82.809 48.5139Z" fill="white"/>
<path d="M109 48.5139C109 49.708 108.037 50.6522 106.882 50.6522C105.699 50.6522 104.763 49.6802 104.763 48.5139C104.763 47.3198 105.726 46.3756 106.882 46.3756C108.037 46.3756 109 47.3198 109 48.5139Z" fill="white"/>
<path d="M4.23675 71.6739C4.23675 72.868 3.27385 73.8122 2.11837 73.8122C0.962898 73.84 0 72.868 0 71.6739C0 70.4798 0.962898 69.5356 2.11837 69.5356C3.30136 69.5356 4.23675 70.5076 4.23675 71.6739Z" fill="white"/>
<path d="M30.4277 71.6739C30.4277 72.868 29.4648 73.8122 28.3093 73.8122C27.1263 73.8122 26.1909 72.8402 26.1909 71.6739C26.1909 70.4798 27.1538 69.5356 28.3093 69.5356C29.4923 69.5356 30.4277 70.5076 30.4277 71.6739Z" fill="white"/>
<path d="M56.6181 71.6739C56.6181 72.868 55.6552 73.8122 54.4997 73.8122C53.3167 73.8122 52.3813 72.8402 52.3813 71.6739C52.3813 70.4798 53.3442 69.5356 54.4997 69.5356C55.6552 69.5356 56.6181 70.5076 56.6181 71.6739Z" fill="white"/>
<path d="M82.809 71.6739C82.809 72.868 81.8461 73.8122 80.6906 73.8122C79.5077 73.8122 78.5723 72.8402 78.5723 71.6739C78.5723 70.4798 79.5352 69.5356 80.6906 69.5356C81.8461 69.5356 82.809 70.5076 82.809 71.6739Z" fill="white"/>
<path d="M109 71.6739C109 72.868 108.037 73.8122 106.882 73.8122C105.699 73.8122 104.763 72.8402 104.763 71.6739C104.763 70.4798 105.726 69.5356 106.882 69.5356C108.037 69.5356 109 70.5076 109 71.6739Z" fill="white"/>
<path d="M4.23675 94.8617C4.23675 96.0558 3.27385 97 2.11837 97C0.962898 97 0 96.0558 0 94.8617C0 93.6676 0.962898 92.7234 2.11837 92.7234C3.30136 92.7234 4.23675 93.6954 4.23675 94.8617Z" fill="white"/>
<path d="M30.4277 94.8617C30.4277 96.0558 29.4648 97 28.3093 97C27.1263 97 26.1909 96.0281 26.1909 94.8617C26.1909 93.6676 27.1538 92.7234 28.3093 92.7234C29.4923 92.7234 30.4277 93.6954 30.4277 94.8617Z" fill="white"/>
<path d="M56.6181 94.8617C56.6181 96.0558 55.6552 97 54.4997 97C53.3167 97 52.3813 96.0281 52.3813 94.8617C52.3813 93.6676 53.3442 92.7234 54.4997 92.7234C55.6552 92.7234 56.6181 93.6954 56.6181 94.8617Z" fill="white"/>
<path d="M82.809 94.8617C82.809 96.0558 81.8461 97 80.6906 97C79.5077 97 78.5723 96.0281 78.5723 94.8617C78.5723 93.6676 79.5352 92.7234 80.6906 92.7234C81.8461 92.7234 82.809 93.6954 82.809 94.8617Z" fill="white"/>
<path d="M106.854 97C108.024 97 108.973 96.0427 108.973 94.8617C108.973 93.6808 108.024 92.7234 106.854 92.7234C105.684 92.7234 104.736 93.6808 104.736 94.8617C104.736 96.0427 105.684 97 106.854 97Z" fill="white"/>
</svg>
