<svg width="44" height="77" viewBox="0 0 44 77" fill="none" xmlns="http://www.w3.org/2000/svg">
<path d="M19.2925 47.4177C19.2925 47.4177 20.0425 49.7373 19 53.0316L21 56V47C19.6775 47.4483 19.2925 47.4177 19.2925 47.4177Z" fill="url(#paint0_linear)"/>
<path d="M5.40677 43.2921C8.45491 62.2979 0 62.5809 0 62.5809C0 62.5809 3.88115 78.5858 15.3842 76.8715C15.3842 76.8715 19.4026 64.8549 17.1875 50.5001C17.1875 50.5001 10.6482 49.4194 7.89957 43.4336C7.89957 43.4336 10.1865 41.9347 13.6183 41.7739C13.6183 41.7739 15.8116 45.6883 18.8691 46.5953C18.8691 46.5953 19.3527 46.6307 21 46.1129V24C21 24 2.35552 24.2863 5.40677 43.2921Z" fill="url(#paint1_linear)"/>
<path d="M27.7899 51.5866C32.1063 48.9732 35 44 35 44C31.6125 48.7229 25.7388 49.6341 25.7388 49.6341C23.2836 64.5303 27.7346 77 27.7346 77C24.9998 58.6492 27.7899 51.5866 27.7899 51.5866Z" fill="url(#paint2_linear)"/>
<path d="M23.5981 46.2825C27.3221 45.3905 30 41.5577 30 41.5577C21 48.1863 21 37 21 37V56L24.0431 52.64C22.4569 48.9081 23.5981 46.2825 23.5981 46.2825Z" fill="url(#paint3_linear)"/>
<path d="M44 62.7567C44 62.7567 35.1129 62.4683 38.3169 43.321C40.314 31.3835 33.4503 26.779 28 25C28.5247 25.2009 29.0756 25.6254 29.5151 25.8911C30.6628 26.5878 31.8008 27.3622 32.7911 28.2695C34.562 29.8929 35.8475 32.0316 36.4378 34.3484C37.051 36.7528 37.7922 38.9465 37.5561 41.4707C37.5561 41.4707 35.0965 40.5537 32.4206 40.3917C32.4206 40.3917 36.792 41.3897 37.3101 42.7118C37.4839 43.1525 36.9658 44.4778 36.8871 44.9347C35.7688 51.3279 35.2867 59.8241 41.7635 63.7676C41.7635 63.7676 40.7797 68.437 39.1695 70.9742C37.5593 73.5114 34.8047 76 34.8047 76C41.5438 72.455 44 62.7567 44 62.7567Z" fill="url(#paint4_linear)"/>
<path d="M16.0106 18C16.0106 18 16.3278 22.6071 14 24C14 24 18.1654 22.7618 21 22.6395C21 22.6395 19.2366 21.7073 16.9871 21.3869C16.9829 21.3869 17.0159 19.4793 16.0106 18Z" fill="url(#paint5_linear)"/>
<path d="M26.5639 18C26.5639 18 26.3373 22.6071 28 24C28 24 25.0247 22.7618 23 22.6395C23 22.6395 24.2596 21.7073 25.8664 21.3869C25.8693 21.3869 25.8458 19.4793 26.5639 18Z" fill="url(#paint6_linear)"/>
<path d="M23 22C23.3368 21.8953 23.6736 21.8011 24 21.7139C23.6062 19.0624 23.285 16.3096 23.2021 14L23 22Z" fill="url(#paint7_linear)"/>
<path d="M23.0416 0.00343913L23.3382 14C23.4769 9.62664 24.4553 3.42173 24.9907 0.293586C25.1717 0.32381 22.6487 -0.0388739 23.0416 0.00343913Z" fill="url(#paint8_linear)"/>
<path d="M25.8319 0C26.8555 0.660757 28.2669 1.64351 29.0211 2.4988C29.0211 2.4988 27.0207 6.51701 25.8642 10.9545C24.8263 14.9391 25.0131 21 25.0131 21C25.4261 15.2276 31 2.2506 31 2.2506C29.2761 1.14375 27.4445 0.442741 25.8319 0Z" fill="url(#paint9_linear)"/>
<path d="M20.0495 0.103347L19.7774 15.0596C19.6502 10.3864 18.7527 3.75602 18.2615 0.413388C17.9011 0.490898 17.5265 0.578097 17.1378 0.684674C16.1307 1.3209 14.742 2.26718 14 3.09072C14 3.09072 18.0106 13.6418 18.894 19.0191C19.0353 19.8814 19.1519 20.6339 19.2509 21.2927C19.3922 21.3412 19.5371 21.3896 19.689 21.4445C19.9576 18.99 20.1767 16.4419 20.2332 14.3039L20.3675 21.7126C20.583 21.803 20.7951 21.8967 21 22V0C20.7385 0.0226072 20.4134 0.0549031 20.0495 0.103347ZM18.4841 13.4125C18.4523 13.251 18.417 13.0573 18.3675 12.8376C18.318 12.6148 18.265 12.3661 18.212 12.0948C18.0919 11.5523 17.9541 10.9193 17.8057 10.2443C17.6502 9.56929 17.4841 8.84909 17.3216 8.12889C17.1555 7.40869 16.9859 6.68849 16.8304 6.01351C16.6749 5.33852 16.5265 4.70552 16.4064 4.16295C16.159 3.0778 16.0141 2.34146 16.0141 2.34146C16.0141 2.34146 16.2933 3.00998 16.636 4.05637C16.8092 4.57957 17 5.19319 17.1837 5.86171C17.3746 6.52701 17.5548 7.24721 17.7279 7.97064C17.8092 8.33558 17.8869 8.70053 17.9647 9.05901C18.0389 9.42073 18.106 9.77598 18.1696 10.1216C18.2933 10.8159 18.3852 11.4683 18.4523 12.0302C18.4841 12.3112 18.5088 12.5728 18.53 12.8021C18.5548 13.0314 18.5583 13.2349 18.5689 13.3996C18.5866 13.7322 18.5901 13.9196 18.5901 13.9196C18.5901 13.9196 18.5477 13.7355 18.4841 13.4125Z" fill="url(#paint10_linear)"/>
<defs>
<linearGradient id="paint0_linear" x1="20.8598" y1="38.6836" x2="17.448" y2="38.8923" gradientUnits="userSpaceOnUse">
<stop stop-color="#DED9D6"/>
<stop offset="0.063" stop-color="#CFCAC9"/>
<stop offset="0.1833" stop-color="#A8A4A7"/>
<stop offset="0.264" stop-color="#8B878D"/>
<stop offset="0.5225" stop-color="#F3F4F4"/>
<stop offset="0.5842" stop-color="#E5E5E6"/>
<stop offset="0.7027" stop-color="#C0BEC0"/>
<stop offset="0.8647" stop-color="#858085"/>
<stop offset="0.8764" stop-color="#807B80"/>
<stop offset="1" stop-color="#A7A9AC"/>
</linearGradient>
<linearGradient id="paint1_linear" x1="19.5277" y1="-24.9742" x2="-16.0076" y2="-21.0988" gradientUnits="userSpaceOnUse">
<stop stop-color="#DED9D6"/>
<stop offset="0.063" stop-color="#CFCAC9"/>
<stop offset="0.1833" stop-color="#A8A4A7"/>
<stop offset="0.264" stop-color="#8B878D"/>
<stop offset="0.5225" stop-color="#F3F4F4"/>
<stop offset="0.5842" stop-color="#E5E5E6"/>
<stop offset="0.7027" stop-color="#C0BEC0"/>
<stop offset="0.8647" stop-color="#858085"/>
<stop offset="0.8764" stop-color="#807B80"/>
<stop offset="1" stop-color="#A7A9AC"/>
</linearGradient>
<linearGradient id="paint2_linear" x1="30.0011" y1="49.0102" x2="30.0011" y2="76.4225" gradientUnits="userSpaceOnUse">
<stop stop-color="#D8BC75"/>
<stop offset="0.5052" stop-color="#F0E5CB"/>
<stop offset="1" stop-color="#D8BC75"/>
</linearGradient>
<linearGradient id="paint3_linear" x1="29.369" y1="19.4432" x2="14.216" y2="21.4188" gradientUnits="userSpaceOnUse">
<stop stop-color="#DED9D6"/>
<stop offset="0.063" stop-color="#CFCAC9"/>
<stop offset="0.1833" stop-color="#A8A4A7"/>
<stop offset="0.264" stop-color="#8B878D"/>
<stop offset="0.5225" stop-color="#F3F4F4"/>
<stop offset="0.5842" stop-color="#E5E5E6"/>
<stop offset="0.7027" stop-color="#C0BEC0"/>
<stop offset="0.8647" stop-color="#858085"/>
<stop offset="0.8764" stop-color="#807B80"/>
<stop offset="1" stop-color="#A7A9AC"/>
</linearGradient>
<linearGradient id="paint4_linear" x1="36.0018" y1="32.7431" x2="36.0018" y2="75.1076" gradientUnits="userSpaceOnUse">
<stop stop-color="#D8BC75"/>
<stop offset="0.5052" stop-color="#F0E5CB"/>
<stop offset="1" stop-color="#D8BC75"/>
</linearGradient>
<linearGradient id="paint5_linear" x1="20.5092" y1="12.4558" x2="9.64362" y2="15.9448" gradientUnits="userSpaceOnUse">
<stop stop-color="#DED9D6"/>
<stop offset="0.063" stop-color="#CFCAC9"/>
<stop offset="0.1833" stop-color="#A8A4A7"/>
<stop offset="0.264" stop-color="#8B878D"/>
<stop offset="0.5225" stop-color="#F3F4F4"/>
<stop offset="0.5842" stop-color="#E5E5E6"/>
<stop offset="0.7027" stop-color="#C0BEC0"/>
<stop offset="0.8647" stop-color="#858085"/>
<stop offset="0.8764" stop-color="#807B80"/>
<stop offset="1" stop-color="#A7A9AC"/>
</linearGradient>
<linearGradient id="paint6_linear" x1="25.5006" y1="18.9109" x2="25.5006" y2="23.895" gradientUnits="userSpaceOnUse">
<stop stop-color="#D8BC75"/>
<stop offset="0.5052" stop-color="#F0E5CB"/>
<stop offset="1" stop-color="#D8BC75"/>
</linearGradient>
<linearGradient id="paint7_linear" x1="23.5001" y1="15.2146" x2="23.5001" y2="21.86" gradientUnits="userSpaceOnUse">
<stop stop-color="#D8BC75"/>
<stop offset="0.5052" stop-color="#F0E5CB"/>
<stop offset="1" stop-color="#D8BC75"/>
</linearGradient>
<linearGradient id="paint8_linear" x1="24.0002" y1="2.12555" x2="24.0002" y2="13.755" gradientUnits="userSpaceOnUse">
<stop stop-color="#D8BC75"/>
<stop offset="0.5052" stop-color="#F0E5CB"/>
<stop offset="1" stop-color="#D8BC75"/>
</linearGradient>
<linearGradient id="paint9_linear" x1="28.0007" y1="3.18832" x2="28.0007" y2="20.6325" gradientUnits="userSpaceOnUse">
<stop stop-color="#D8BC75"/>
<stop offset="0.5052" stop-color="#F0E5CB"/>
<stop offset="1" stop-color="#D8BC75"/>
</linearGradient>
<linearGradient id="paint10_linear" x1="20.5092" y1="-20.3289" x2="8.61448" y2="-19.2872" gradientUnits="userSpaceOnUse">
<stop stop-color="#DED9D6"/>
<stop offset="0.063" stop-color="#CFCAC9"/>
<stop offset="0.1833" stop-color="#A8A4A7"/>
<stop offset="0.264" stop-color="#8B878D"/>
<stop offset="0.5225" stop-color="#F3F4F4"/>
<stop offset="0.5842" stop-color="#E5E5E6"/>
<stop offset="0.7027" stop-color="#C0BEC0"/>
<stop offset="0.8647" stop-color="#858085"/>
<stop offset="0.8764" stop-color="#807B80"/>
<stop offset="1" stop-color="#A7A9AC"/>
</linearGradient>
</defs>
</svg>
