<svg width="194" height="39" viewBox="0 0 194 39" fill="none" xmlns="http://www.w3.org/2000/svg">
<path d="M2.32169 39L0 33H1.45765L2.95487 37.1848L4.56422 33H5.5206L7.11676 37.1848L8.5876 33H9.84737L7.55207 39H6.60229L4.95337 34.7598L3.27806 39H2.32169Z" fill="url(#paint0_linear)"/>
<path d="M20.4263 39V33H26.5537V34.06H21.8312V35.3695H24.5816V36.4018H21.8312V37.8776H26.6263V39H20.4263Z" fill="url(#paint1_linear)"/>
<path d="M37.6274 39V33H42.7588C43.2337 33 43.5767 33.0924 43.7878 33.2771C44.0032 33.4573 44.111 33.7529 44.111 34.164V34.8845C44.111 35.157 44.0274 35.3811 43.8603 35.5566C43.6932 35.7321 43.4514 35.8499 43.1348 35.9099C43.4514 35.9654 43.6998 36.0947 43.8801 36.2979C44.0604 36.4965 44.1505 36.7483 44.1505 37.0531V37.8222C44.1505 38.2055 44.0032 38.4988 43.7086 38.7021C43.4184 38.9007 42.9743 39 42.3763 39H37.6274ZM42.1191 33.9769H38.9993V35.3972H42.1191C42.3609 35.3972 42.5258 35.3649 42.6137 35.3002C42.7017 35.2356 42.7457 35.1247 42.7457 34.9677V34.3995C42.7457 34.2471 42.7017 34.1386 42.6137 34.0739C42.5302 34.0092 42.3653 33.9769 42.1191 33.9769ZM42.1191 36.388H38.9993V37.9192H42.1191C42.3873 37.9192 42.5676 37.8799 42.6599 37.8014C42.7522 37.7229 42.7984 37.5843 42.7984 37.3857V36.9284C42.7984 36.7344 42.75 36.5958 42.6533 36.5127C42.561 36.4296 42.3829 36.388 42.1191 36.388Z" fill="url(#paint2_linear)"/>
<path d="M74.9844 34.0739H71.0533V35.3418H74.7733C75.3537 35.3418 75.7451 35.4411 75.9473 35.6397C76.154 35.8383 76.2573 36.2102 76.2573 36.7552V37.5797C76.2573 38.1293 76.1518 38.5035 75.9407 38.7021C75.7341 38.9007 75.3449 39 74.7733 39H71.0665C70.4817 39 70.0838 38.903 69.8727 38.709C69.6616 38.5104 69.5561 38.1339 69.5561 37.5797V37.4134L70.7961 37.1709V37.8776H74.9976V36.5058H71.2974C70.7125 36.5058 70.3168 36.4065 70.1101 36.2079C69.9035 36.0046 69.8001 35.6305 69.8001 35.0855V34.4134C69.8001 33.873 69.9035 33.5035 70.1101 33.3048C70.3168 33.1016 70.7125 33 71.2974 33H74.6876C75.2548 33 75.6461 33.097 75.8616 33.291C76.0814 33.4804 76.1914 33.8176 76.1914 34.3025V34.448L74.9844 34.7182V34.0739Z" fill="url(#paint3_linear)"/>
<path d="M87.6476 39V33H93.775V34.06H89.0525V35.3695H91.8029V36.4018H89.0525V37.8776H93.8475V39H87.6476Z" fill="url(#paint4_linear)"/>
<path d="M109.4 34.0323H106.221V35.6952H109.4C109.641 35.6952 109.806 35.6605 109.894 35.5912C109.987 35.5173 110.033 35.3903 110.033 35.2102V34.5173C110.033 34.3464 109.987 34.224 109.894 34.1501C109.802 34.0716 109.637 34.0323 109.4 34.0323ZM104.849 39V33H109.993C110.459 33 110.798 33.0924 111.009 33.2771C111.224 33.4573 111.332 33.7529 111.332 34.164V35.5774C111.332 35.9746 111.227 36.2656 111.016 36.4503C110.805 36.6351 110.464 36.7275 109.993 36.7275H109.208L111.926 39H109.927L107.533 36.7275H106.221V39H104.849Z" fill="url(#paint5_linear)"/>
<path d="M124.8 39L121.344 33H122.92L125.341 37.351L127.623 33H129.067L125.756 39H124.8Z" fill="url(#paint6_linear)"/>
<path d="M139.646 39V33H141.032V39H139.646Z" fill="url(#paint7_linear)"/>
<path d="M157.566 34.1016H153.813V37.8499H157.566V36.5751L158.971 36.873V37.5797C158.971 38.1247 158.866 38.4988 158.655 38.7021C158.448 38.9007 158.055 39 157.474 39H153.906C153.33 39 152.938 38.903 152.732 38.709C152.525 38.5104 152.422 38.1339 152.422 37.5797V34.4134C152.422 33.8776 152.523 33.5058 152.725 33.2979C152.936 33.0993 153.33 33 153.906 33H157.474C158.063 33 158.459 33.0993 158.661 33.2979C158.868 33.4919 158.971 33.8637 158.971 34.4134V34.9954L157.566 35.2102V34.1016Z" fill="url(#paint8_linear)"/>
<path d="M170.249 39V33H176.377V34.06H171.654V35.3695H174.405V36.4018H171.654V37.8776H176.449V39H170.249Z" fill="url(#paint9_linear)"/>
<path d="M192.727 34.0739H188.796V35.3418H192.516C193.096 35.3418 193.488 35.4411 193.69 35.6397C193.897 35.8383 194 36.2102 194 36.7552V37.5797C194 38.1293 193.894 38.5035 193.683 38.7021C193.477 38.9007 193.088 39 192.516 39H188.809C188.224 39 187.826 38.903 187.615 38.709C187.404 38.5104 187.299 38.1339 187.299 37.5797V37.4134L188.539 37.1709V37.8776H192.74V36.5058H189.04C188.455 36.5058 188.059 36.4065 187.853 36.2079C187.646 36.0046 187.543 35.6305 187.543 35.0855V34.4134C187.543 33.873 187.646 33.5035 187.853 33.3048C188.059 33.1016 188.455 33 189.04 33H192.43C192.997 33 193.389 33.097 193.604 33.291C193.824 33.4804 193.934 33.8176 193.934 34.3025V34.448L192.727 34.7182V34.0739Z" fill="url(#paint10_linear)"/>
<path d="M20.0926 3.75497H4.87454V17.0464H20.0926V12.3775H12.1269V8.80132H24.8284V16.0331C24.8284 17.9404 24.4652 19.245 23.7386 19.947C23.0253 20.649 21.658 21 19.6369 21H5.19158C3.17043 21 1.79658 20.6556 1.07002 19.9669C0.356674 19.2649 0 17.9536 0 16.0331V4.96689C0 3.07285 0.356674 1.77483 1.07002 1.07285C1.79658 0.357616 3.17043 0 5.19158 0H19.6369C21.6448 0 23.012 0.344371 23.7386 1.03311C24.4652 1.72185 24.8284 2.96689 24.8284 4.76821V5.24503L20.0926 6.09934V3.75497Z" fill="url(#paint11_linear)"/>
<path d="M34.7162 4.96689C34.7162 3.07285 35.0729 1.77483 35.7862 1.07285C36.5128 0.357616 37.8867 0 39.9078 0H55.324C57.3584 0 58.7322 0.350993 59.4456 1.05298C60.1589 1.75497 60.5156 3.0596 60.5156 4.96689V16.0331C60.5156 17.9404 60.1523 19.245 59.4258 19.947C58.7124 20.649 57.3452 21 55.324 21H39.9078C37.8867 21 36.5128 20.6556 35.7862 19.9669C35.0729 19.2649 34.7162 17.9536 34.7162 16.0331V4.96689ZM39.5908 17.0464H55.6609V3.75497H39.5908V17.0464Z" fill="url(#paint12_linear)"/>
<path d="M70.7799 21V0H75.6544V17.0464H91.3679V21H70.7799Z" fill="url(#paint13_linear)"/>
<path d="M98.5211 21V0H103.396V21H98.5211Z" fill="url(#paint14_linear)"/>
<path d="M119.466 12.6159H128.64L124.122 4.07285L119.466 12.6159ZM110.093 21L121.943 0H126.639L138.647 21H133.178L130.661 16.4106H117.385L114.948 21H110.093Z" fill="url(#paint15_linear)"/>
<path d="M152.379 3.75497V21H147.504V3.75497H137.894V0H162.029V3.75497H152.379Z" fill="url(#paint16_linear)"/>
<path d="M167.993 21V0H172.868V8.1457H188.086V0H193V21H188.086V11.9603H172.868V21H167.993Z" fill="url(#paint17_linear)"/>
<defs>
<linearGradient id="paint0_linear" x1="181.43" y1="14.1827" x2="158.257" y2="99.184" gradientUnits="userSpaceOnUse">
<stop stop-color="#DED9D6"/>
<stop offset="0.063" stop-color="#CFCAC9"/>
<stop offset="0.1833" stop-color="#A8A4A7"/>
<stop offset="0.264" stop-color="#8B878D"/>
<stop offset="0.5225" stop-color="#F3F4F4"/>
<stop offset="0.5842" stop-color="#E5E5E6"/>
<stop offset="0.7027" stop-color="#C0BEC0"/>
<stop offset="0.8647" stop-color="#858085"/>
<stop offset="0.8764" stop-color="#807B80"/>
<stop offset="1" stop-color="#A7A9AC"/>
</linearGradient>
<linearGradient id="paint1_linear" x1="181.43" y1="14.1827" x2="158.257" y2="99.184" gradientUnits="userSpaceOnUse">
<stop stop-color="#DED9D6"/>
<stop offset="0.063" stop-color="#CFCAC9"/>
<stop offset="0.1833" stop-color="#A8A4A7"/>
<stop offset="0.264" stop-color="#8B878D"/>
<stop offset="0.5225" stop-color="#F3F4F4"/>
<stop offset="0.5842" stop-color="#E5E5E6"/>
<stop offset="0.7027" stop-color="#C0BEC0"/>
<stop offset="0.8647" stop-color="#858085"/>
<stop offset="0.8764" stop-color="#807B80"/>
<stop offset="1" stop-color="#A7A9AC"/>
</linearGradient>
<linearGradient id="paint2_linear" x1="181.43" y1="14.1827" x2="158.257" y2="99.184" gradientUnits="userSpaceOnUse">
<stop stop-color="#DED9D6"/>
<stop offset="0.063" stop-color="#CFCAC9"/>
<stop offset="0.1833" stop-color="#A8A4A7"/>
<stop offset="0.264" stop-color="#8B878D"/>
<stop offset="0.5225" stop-color="#F3F4F4"/>
<stop offset="0.5842" stop-color="#E5E5E6"/>
<stop offset="0.7027" stop-color="#C0BEC0"/>
<stop offset="0.8647" stop-color="#858085"/>
<stop offset="0.8764" stop-color="#807B80"/>
<stop offset="1" stop-color="#A7A9AC"/>
</linearGradient>
<linearGradient id="paint3_linear" x1="181.43" y1="14.1827" x2="158.257" y2="99.184" gradientUnits="userSpaceOnUse">
<stop stop-color="#DED9D6"/>
<stop offset="0.063" stop-color="#CFCAC9"/>
<stop offset="0.1833" stop-color="#A8A4A7"/>
<stop offset="0.264" stop-color="#8B878D"/>
<stop offset="0.5225" stop-color="#F3F4F4"/>
<stop offset="0.5842" stop-color="#E5E5E6"/>
<stop offset="0.7027" stop-color="#C0BEC0"/>
<stop offset="0.8647" stop-color="#858085"/>
<stop offset="0.8764" stop-color="#807B80"/>
<stop offset="1" stop-color="#A7A9AC"/>
</linearGradient>
<linearGradient id="paint4_linear" x1="181.43" y1="14.1827" x2="158.257" y2="99.184" gradientUnits="userSpaceOnUse">
<stop stop-color="#DED9D6"/>
<stop offset="0.063" stop-color="#CFCAC9"/>
<stop offset="0.1833" stop-color="#A8A4A7"/>
<stop offset="0.264" stop-color="#8B878D"/>
<stop offset="0.5225" stop-color="#F3F4F4"/>
<stop offset="0.5842" stop-color="#E5E5E6"/>
<stop offset="0.7027" stop-color="#C0BEC0"/>
<stop offset="0.8647" stop-color="#858085"/>
<stop offset="0.8764" stop-color="#807B80"/>
<stop offset="1" stop-color="#A7A9AC"/>
</linearGradient>
<linearGradient id="paint5_linear" x1="181.43" y1="14.1827" x2="158.257" y2="99.184" gradientUnits="userSpaceOnUse">
<stop stop-color="#DED9D6"/>
<stop offset="0.063" stop-color="#CFCAC9"/>
<stop offset="0.1833" stop-color="#A8A4A7"/>
<stop offset="0.264" stop-color="#8B878D"/>
<stop offset="0.5225" stop-color="#F3F4F4"/>
<stop offset="0.5842" stop-color="#E5E5E6"/>
<stop offset="0.7027" stop-color="#C0BEC0"/>
<stop offset="0.8647" stop-color="#858085"/>
<stop offset="0.8764" stop-color="#807B80"/>
<stop offset="1" stop-color="#A7A9AC"/>
</linearGradient>
<linearGradient id="paint6_linear" x1="181.43" y1="14.1827" x2="158.257" y2="99.184" gradientUnits="userSpaceOnUse">
<stop stop-color="#DED9D6"/>
<stop offset="0.063" stop-color="#CFCAC9"/>
<stop offset="0.1833" stop-color="#A8A4A7"/>
<stop offset="0.264" stop-color="#8B878D"/>
<stop offset="0.5225" stop-color="#F3F4F4"/>
<stop offset="0.5842" stop-color="#E5E5E6"/>
<stop offset="0.7027" stop-color="#C0BEC0"/>
<stop offset="0.8647" stop-color="#858085"/>
<stop offset="0.8764" stop-color="#807B80"/>
<stop offset="1" stop-color="#A7A9AC"/>
</linearGradient>
<linearGradient id="paint7_linear" x1="181.43" y1="14.1827" x2="158.257" y2="99.184" gradientUnits="userSpaceOnUse">
<stop stop-color="#DED9D6"/>
<stop offset="0.063" stop-color="#CFCAC9"/>
<stop offset="0.1833" stop-color="#A8A4A7"/>
<stop offset="0.264" stop-color="#8B878D"/>
<stop offset="0.5225" stop-color="#F3F4F4"/>
<stop offset="0.5842" stop-color="#E5E5E6"/>
<stop offset="0.7027" stop-color="#C0BEC0"/>
<stop offset="0.8647" stop-color="#858085"/>
<stop offset="0.8764" stop-color="#807B80"/>
<stop offset="1" stop-color="#A7A9AC"/>
</linearGradient>
<linearGradient id="paint8_linear" x1="181.43" y1="14.1827" x2="158.257" y2="99.184" gradientUnits="userSpaceOnUse">
<stop stop-color="#DED9D6"/>
<stop offset="0.063" stop-color="#CFCAC9"/>
<stop offset="0.1833" stop-color="#A8A4A7"/>
<stop offset="0.264" stop-color="#8B878D"/>
<stop offset="0.5225" stop-color="#F3F4F4"/>
<stop offset="0.5842" stop-color="#E5E5E6"/>
<stop offset="0.7027" stop-color="#C0BEC0"/>
<stop offset="0.8647" stop-color="#858085"/>
<stop offset="0.8764" stop-color="#807B80"/>
<stop offset="1" stop-color="#A7A9AC"/>
</linearGradient>
<linearGradient id="paint9_linear" x1="181.43" y1="14.1827" x2="158.257" y2="99.184" gradientUnits="userSpaceOnUse">
<stop stop-color="#DED9D6"/>
<stop offset="0.063" stop-color="#CFCAC9"/>
<stop offset="0.1833" stop-color="#A8A4A7"/>
<stop offset="0.264" stop-color="#8B878D"/>
<stop offset="0.5225" stop-color="#F3F4F4"/>
<stop offset="0.5842" stop-color="#E5E5E6"/>
<stop offset="0.7027" stop-color="#C0BEC0"/>
<stop offset="0.8647" stop-color="#858085"/>
<stop offset="0.8764" stop-color="#807B80"/>
<stop offset="1" stop-color="#A7A9AC"/>
</linearGradient>
<linearGradient id="paint10_linear" x1="181.43" y1="14.1827" x2="158.257" y2="99.184" gradientUnits="userSpaceOnUse">
<stop stop-color="#DED9D6"/>
<stop offset="0.063" stop-color="#CFCAC9"/>
<stop offset="0.1833" stop-color="#A8A4A7"/>
<stop offset="0.264" stop-color="#8B878D"/>
<stop offset="0.5225" stop-color="#F3F4F4"/>
<stop offset="0.5842" stop-color="#E5E5E6"/>
<stop offset="0.7027" stop-color="#C0BEC0"/>
<stop offset="0.8647" stop-color="#858085"/>
<stop offset="0.8764" stop-color="#807B80"/>
<stop offset="1" stop-color="#A7A9AC"/>
</linearGradient>
<linearGradient id="paint11_linear" x1="96.7957" y1="-5.74417" x2="96.7957" y2="29.609" gradientUnits="userSpaceOnUse">
<stop stop-color="#D8BC75"/>
<stop offset="0.5052" stop-color="#F0E5CB"/>
<stop offset="1" stop-color="#D8BC75"/>
</linearGradient>
<linearGradient id="paint12_linear" x1="96.7957" y1="-5.74417" x2="96.7957" y2="29.609" gradientUnits="userSpaceOnUse">
<stop stop-color="#D8BC75"/>
<stop offset="0.5052" stop-color="#F0E5CB"/>
<stop offset="1" stop-color="#D8BC75"/>
</linearGradient>
<linearGradient id="paint13_linear" x1="96.7957" y1="-5.74417" x2="96.7957" y2="29.609" gradientUnits="userSpaceOnUse">
<stop stop-color="#D8BC75"/>
<stop offset="0.5052" stop-color="#F0E5CB"/>
<stop offset="1" stop-color="#D8BC75"/>
</linearGradient>
<linearGradient id="paint14_linear" x1="96.7957" y1="-5.74417" x2="96.7957" y2="29.609" gradientUnits="userSpaceOnUse">
<stop stop-color="#D8BC75"/>
<stop offset="0.5052" stop-color="#F0E5CB"/>
<stop offset="1" stop-color="#D8BC75"/>
</linearGradient>
<linearGradient id="paint15_linear" x1="96.7957" y1="-5.74417" x2="96.7957" y2="29.609" gradientUnits="userSpaceOnUse">
<stop stop-color="#D8BC75"/>
<stop offset="0.5052" stop-color="#F0E5CB"/>
<stop offset="1" stop-color="#D8BC75"/>
</linearGradient>
<linearGradient id="paint16_linear" x1="96.7957" y1="-5.74417" x2="96.7957" y2="29.609" gradientUnits="userSpaceOnUse">
<stop stop-color="#D8BC75"/>
<stop offset="0.5052" stop-color="#F0E5CB"/>
<stop offset="1" stop-color="#D8BC75"/>
</linearGradient>
<linearGradient id="paint17_linear" x1="96.7957" y1="-5.74417" x2="96.7957" y2="29.609" gradientUnits="userSpaceOnUse">
<stop stop-color="#D8BC75"/>
<stop offset="0.5052" stop-color="#F0E5CB"/>
<stop offset="1" stop-color="#D8BC75"/>
</linearGradient>
</defs>
</svg>
