<svg width="60" height="60" viewBox="0 0 60 60" fill="none" xmlns="http://www.w3.org/2000/svg">
<path d="M55.2578 4.19043H4.74235C2.12743 4.19043 0 6.31786 0 8.93278V42.1787C0 44.7936 2.12743 46.9211 4.74235 46.9211H23.7316V50.0596C20.9282 50.5726 18.1721 51.4309 15.5281 52.6381C14.6938 53.0189 14.3263 54.004 14.7072 54.8383C15.088 55.6724 16.0731 56.0399 16.9074 55.6592C25.2279 51.8603 34.7722 51.8603 43.0926 55.6592C43.3162 55.7612 43.5506 55.8096 43.7812 55.8096C44.4113 55.8096 45.0139 55.449 45.2928 54.8384C45.6737 54.0041 45.3062 53.0192 44.4719 52.6382C41.8278 51.4309 39.0718 50.5727 36.2684 50.0597V46.9212H55.2576C57.8726 46.9212 60 44.7937 60 42.1788V8.93278C60.0001 6.31786 57.8727 4.19043 55.2578 4.19043ZM55.8182 41.1473C55.8182 41.6059 55.4464 41.9776 54.9879 41.9776H5.01224C4.55368 41.9776 4.18196 41.6059 4.18196 41.1473V9.96415C4.18196 9.5056 4.55368 9.13388 5.01224 9.13388H54.9879C55.4464 9.13388 55.8182 9.5056 55.8182 9.96415V41.1473Z" fill="#D8BC75"/>
<path d="M36.3581 14.386H10.7738C9.85672 14.386 9.11328 15.1294 9.11328 16.0465V29.6616C9.1134 30.5786 9.85684 31.3221 10.7738 31.3221H36.3581C37.2753 31.3221 38.0187 30.5786 38.0187 29.6615V16.0465C38.0187 15.1294 37.2753 14.386 36.3581 14.386Z" fill="#D8BC75"/>
<path d="M49.2254 14.386H43.0912C42.1741 14.386 41.4307 15.1294 41.4307 16.0465V29.6616C41.4307 30.5787 42.1741 31.3222 43.0912 31.3222H49.2254C50.1425 31.3222 50.886 30.5787 50.886 29.6616V16.0465C50.886 15.1294 50.1425 14.386 49.2254 14.386Z" fill="#D8BC75"/>
<path d="M49.2251 34.7295H10.7738C9.85672 34.7295 9.11328 35.4729 9.11328 36.39C9.11328 37.3072 9.85684 38.0506 10.7738 38.0506H49.2251C50.1422 38.0506 50.8857 37.3072 50.8857 36.39C50.8857 35.4729 50.1422 34.7295 49.2251 34.7295Z" fill="#D8BC75"/>
</svg>
