<svg width="60" height="60" viewBox="0 0 60 60" fill="none" xmlns="http://www.w3.org/2000/svg">
<path d="M43.1392 43.113C52.9977 33.418 53.1302 17.5667 43.4352 7.70835C43.3373 7.60889 43.2387 7.5103 43.1392 7.41244C33.2809 -2.46055 17.2854 -2.47228 7.41242 7.38609C-2.46057 17.2444 -2.47229 33.2401 7.38622 43.1129C17.2447 52.9857 33.2402 52.9976 43.113 43.1391C43.1217 43.1306 43.1305 43.1217 43.1392 43.113ZM25.2889 46.9704C13.3001 46.9655 3.58533 37.2425 3.59039 25.2536C3.59546 13.2648 13.3185 3.54988 25.3073 3.55494C37.2962 3.56001 47.0111 13.283 47.006 25.2719C47.0035 31.0282 44.715 36.5478 40.6433 40.617C36.5704 44.6875 31.0472 46.9729 25.2889 46.9704Z" fill="#D8BC75"/>
<path d="M39.0552 11.5716C31.573 3.98983 19.361 3.90905 11.7792 11.3914C11.7187 11.451 11.6586 11.5111 11.599 11.5716C4.01717 19.0538 3.93639 31.2658 11.4187 38.8476C11.4784 38.9081 11.5385 38.9682 11.599 39.0278C19.5596 46.2307 31.8522 45.6165 39.0552 37.6558C45.7547 30.2516 45.7547 18.9759 39.0552 11.5716Z" fill="#D8BC75"/>
<path d="M59.3887 55.4286C59.2585 55.2656 59.1106 55.1176 58.9476 54.9875L46.6188 42.6587C46.0546 43.3988 45.4486 44.1058 44.8034 44.7766C44.1327 45.4217 43.4256 46.0277 42.6855 46.5919L55.0143 58.9207C55.9787 60.1285 57.7396 60.326 58.9474 59.3618C60.1553 58.3976 60.3529 56.6364 59.3887 55.4286Z" fill="#D8BC75"/>
</svg>
