<svg width="60" height="60" viewBox="0 0 60 60" fill="none" xmlns="http://www.w3.org/2000/svg">
<g clip-path="url(#clip0)">
<path d="M47.3612 36.463H15.787C8.75668 36.463 3.03711 30.7358 3.03711 23.6961C3.03711 16.6564 8.75668 10.9291 15.7871 10.9291H16.6939V10.2158C16.6939 4.59069 21.2641 0.0144043 26.8816 0.0144043C32.3976 0.0144043 36.9039 4.42675 37.065 9.91183C37.8751 9.66058 38.7243 9.53167 39.5926 9.53167C44.0239 9.53167 47.677 12.9312 48.0871 17.2628C53.0431 17.6357 56.962 21.7929 56.962 26.8493C56.962 32.1504 52.6551 36.463 47.3612 36.463Z" fill="#D8BC75"/>
<path d="M28.2549 39.7146V46.0574C28.8272 45.939 29.4197 45.8767 30.0265 45.8767C30.622 45.8767 31.2036 45.937 31.7658 46.051V39.7146H28.2549Z" fill="#D8BC75"/>
<path d="M21.4566 52.8726H13.917C14.0331 53.4406 14.0943 54.0285 14.0943 54.6304C14.0943 55.2322 14.0332 55.8202 13.917 56.3882H21.4566C21.3405 55.8202 21.2793 55.2322 21.2793 54.6304C21.2793 54.0285 21.3405 53.4406 21.4566 52.8726Z" fill="#D8BC75"/>
<path d="M46.0833 52.8726H38.5957C38.7118 53.4406 38.773 54.0285 38.773 54.6304C38.773 55.2322 38.712 55.8202 38.5957 56.3882H46.0833C45.9671 55.8202 45.906 55.2322 45.906 54.6304C45.906 54.0285 45.967 53.4406 46.0833 52.8726Z" fill="#D8BC75"/>
<path d="M5.34797 59.9856C8.30157 59.9856 10.6959 57.5881 10.6959 54.6305C10.6959 51.673 8.30157 49.2754 5.34797 49.2754C2.39437 49.2754 0 51.673 0 54.6305C0 57.5881 2.39437 59.9856 5.34797 59.9856Z" fill="#D8BC75"/>
<path d="M30.0257 59.9856C32.9793 59.9856 35.3737 57.5881 35.3737 54.6305C35.3737 51.673 32.9793 49.2754 30.0257 49.2754C27.0721 49.2754 24.6777 51.673 24.6777 54.6305C24.6777 57.5881 27.0721 59.9856 30.0257 59.9856Z" fill="#D8BC75"/>
<path d="M54.6527 59.9856C57.6063 59.9856 60.0006 57.5881 60.0006 54.6305C60.0006 51.673 57.6063 49.2754 54.6527 49.2754C51.6991 49.2754 49.3047 51.673 49.3047 54.6305C49.3047 57.5881 51.6991 59.9856 54.6527 59.9856Z" fill="#D8BC75"/>
</g>
<defs>
<clipPath id="clip0">
<rect width="60" height="60" fill="white"/>
</clipPath>
</defs>
</svg>
