<svg width="60" height="60" viewBox="0 0 60 60" fill="none" xmlns="http://www.w3.org/2000/svg">
<g clip-path="url(#clip0)">
<path d="M40.837 39.9211C43.7274 35.9033 45.5043 31.2864 46.059 26.4132L29.9998 21.8467L13.9404 26.4132C14.495 31.2863 16.2719 35.9033 19.1624 39.9211C21.9766 43.8329 25.7114 46.98 29.9998 49.0616C34.288 46.98 38.0229 43.8329 40.837 39.9211Z" fill="#D8BC75"/>
<path d="M30.0002 18.1208L46.2474 22.7409V15.2888L30.0002 10.6687L13.7529 15.2888V22.7409L30.0002 18.1208Z" fill="#D8BC75"/>
<path d="M31.792 0V7.45211L49.8312 12.5818V23.0971C49.8312 29.9396 47.7273 36.481 43.7467 42.0143C40.6349 46.3395 36.519 49.8329 31.792 52.174V60.0001C38.9299 57.2186 45.056 52.4686 49.5653 46.2002C54.4285 39.4402 56.9991 31.4512 56.9991 23.0971V7.1679L31.792 0Z" fill="#D8BC75"/>
<path d="M28.2081 52.1738C23.4811 49.8328 19.3651 46.3394 16.2535 42.0142C12.2729 36.481 10.1689 29.9396 10.1689 23.097V12.5817L28.2081 7.45199V0L3.00098 7.1679V23.097C3.00098 31.4511 5.57162 39.4401 10.4348 46.2001C14.9443 52.4684 21.0703 57.2185 28.2081 60V52.1738Z" fill="#D8BC75"/>
</g>
<defs>
<clipPath id="clip0">
<rect width="60" height="60" fill="white"/>
</clipPath>
</defs>
</svg>
